<?xml version="1.0" encoding="UTF-8"?>
<svg xmlns="http://www.w3.org/2000/svg" xmlns:xlink="http://www.w3.org/1999/xlink" width="105px" height="105px" viewBox="0 0 105 105" version="1.1">
<g id="surface1">
<path style=" stroke:none;fill-rule:nonzero;fill:rgb(24.705882%,77.254902%,94.117647%);fill-opacity:1;" d="M 52.5 0 C 81.496094 0 105 23.503906 105 52.5 C 105 81.496094 81.496094 105 52.5 105 C 23.503906 105 0 81.496094 0 52.5 C 0 23.503906 23.503906 0 52.5 0 Z M 52.5 0 "/>
<path style="fill-rule:nonzero;fill:rgb(100%,100%,100%);fill-opacity:1;stroke-width:1;stroke-linecap:butt;stroke-linejoin:miter;stroke:rgb(100%,100%,100%);stroke-opacity:1;stroke-miterlimit:4;" d="M 54.998571 24.001905 L 15.999762 24.001905 L 15.999762 26.001429 L 54.998571 26.001429 C 57.200476 26.001429 59.001667 27.798571 59.001667 30.000476 L 59.001667 36.99881 L 32.999762 36.99881 C 13.700714 36.99881 2.99881 45.199286 2.99881 60.001429 L 2.99881 61.00119 L 61.00119 61.00119 L 61.00119 30.000476 C 61.00119 26.701667 58.301429 24.001905 54.998571 24.001905 Z M 59.001667 59.001667 L 4.998333 59.001667 C 5.601429 41.600952 22.698571 38.998333 32.999762 38.998333 L 59.001667 38.998333 Z M 59.001667 59.001667 " transform="matrix(0.965074,0,0,0.965074,21.617647,21.617647)"/>
</g>
</svg>
