<?xml version="1.0" encoding="UTF-8"?>
<svg xmlns="http://www.w3.org/2000/svg" xmlns:xlink="http://www.w3.org/1999/xlink" width="105px" height="105px" viewBox="0 0 105 105" version="1.1">
<g id="surface1">
<path style=" stroke:none;fill-rule:nonzero;fill:rgb(24.705882%,77.254902%,94.117647%);fill-opacity:1;" d="M 52.5 0 C 81.496094 0 105 23.503906 105 52.5 C 105 81.496094 81.496094 105 52.5 105 C 23.503906 105 0 81.496094 0 52.5 C 0 23.503906 23.503906 0 52.5 0 Z M 52.5 0 "/>
<path style=" stroke:none;fill-rule:nonzero;fill:rgb(100%,100%,100%);fill-opacity:1;" d="M 75.933594 83.382812 L 29.066406 83.382812 C 27.070312 83.382812 25.441406 81.757812 25.441406 79.757812 L 25.441406 25.238281 C 25.441406 23.242188 27.070312 21.617188 29.066406 21.617188 L 75.933594 21.617188 C 77.929688 21.617188 79.554688 23.242188 79.554688 25.238281 L 79.554688 79.757812 C 79.554688 81.757812 77.929688 83.382812 75.933594 83.382812 Z M 27.351562 34.390625 L 27.351562 79.757812 C 27.351562 80.703125 28.121094 81.472656 29.066406 81.472656 L 75.933594 81.472656 C 76.878906 81.472656 77.644531 80.703125 77.644531 79.757812 L 77.644531 34.390625 Z M 27.351562 32.480469 L 77.644531 32.480469 L 77.644531 25.238281 C 77.644531 24.296875 76.878906 23.527344 75.933594 23.527344 L 29.066406 23.527344 C 28.121094 23.527344 27.355469 24.296875 27.355469 25.238281 L 27.355469 32.480469 Z M 52.5 73.644531 C 43.382812 73.644531 35.964844 66.226562 35.964844 57.109375 C 35.964844 47.992188 43.382812 40.574219 52.5 40.574219 C 61.617188 40.574219 69.03125 47.992188 69.03125 57.109375 C 69.03125 66.226562 61.617188 73.644531 52.5 73.644531 Z M 52.5 42.484375 C 44.4375 42.484375 37.875 49.046875 37.875 57.109375 C 37.875 65.171875 44.4375 71.734375 52.5 71.734375 C 59.878906 71.734375 66 66.238281 66.984375 59.125 L 64.375 59.125 C 63.410156 64.898438 58.449219 69.152344 52.5 69.152344 C 45.859375 69.152344 40.457031 63.75 40.457031 57.109375 C 40.457031 50.46875 45.859375 45.066406 52.5 45.066406 C 58.191406 45.066406 63.003906 48.953125 64.242188 54.417969 L 66.875 54.417969 C 65.609375 47.636719 59.644531 42.484375 52.5 42.484375 Z M 52.5 46.976562 C 46.910156 46.976562 42.367188 51.519531 42.367188 57.109375 C 42.367188 62.695312 46.910156 67.242188 52.5 67.242188 C 57.394531 67.242188 61.496094 63.820312 62.433594 59.125 L 57.800781 59.125 C 57.792969 59.125 57.785156 59.125 57.777344 59.125 L 57.707031 59.125 C 57.179688 59.125 56.75 58.699219 56.75 58.171875 L 56.75 55.375 C 56.75 54.847656 57.179688 54.417969 57.707031 54.417969 L 62.273438 54.417969 C 61.085938 50.042969 57.140625 46.976562 52.5 46.976562 Z M 63.5625 57.214844 L 66.917969 57.214844 L 66.917969 56.328125 L 58.757812 56.328125 L 58.757812 57.214844 L 63.535156 57.214844 C 63.546875 57.214844 63.554688 57.214844 63.5625 57.214844 Z M 32.105469 30.945312 C 30.546875 30.945312 29.277344 29.675781 29.277344 28.117188 C 29.277344 26.558594 30.546875 25.289062 32.105469 25.289062 C 33.664062 25.289062 34.929688 26.558594 34.929688 28.117188 C 34.929688 29.675781 33.664062 30.945312 32.105469 30.945312 Z M 32.105469 27.199219 C 31.597656 27.199219 31.1875 27.609375 31.1875 28.117188 C 31.1875 28.621094 31.597656 29.035156 32.105469 29.035156 C 32.609375 29.035156 33.019531 28.621094 33.019531 28.117188 C 33.019531 27.609375 32.609375 27.199219 32.105469 27.199219 Z M 49.519531 30.429688 L 46.070312 30.429688 C 45.542969 30.429688 45.117188 30 45.117188 29.472656 C 45.117188 28.945312 45.542969 28.519531 46.070312 28.519531 L 49.519531 28.519531 C 50.046875 28.519531 50.476562 28.945312 50.476562 29.472656 C 50.476562 30 50.046875 30.429688 49.519531 30.429688 Z M 41.9375 30.429688 L 38.484375 30.429688 C 37.957031 30.429688 37.53125 30 37.53125 29.472656 C 37.53125 28.945312 37.957031 28.519531 38.484375 28.519531 L 41.9375 28.519531 C 42.464844 28.519531 42.890625 28.945312 42.890625 29.472656 C 42.890625 30 42.464844 30.429688 41.9375 30.429688 Z M 49.519531 27.523438 L 46.070312 27.523438 C 45.542969 27.523438 45.117188 27.097656 45.117188 26.570312 C 45.117188 26.042969 45.542969 25.613281 46.070312 25.613281 L 49.519531 25.613281 C 50.046875 25.613281 50.476562 26.042969 50.476562 26.570312 C 50.476562 27.097656 50.046875 27.523438 49.519531 27.523438 Z M 41.9375 27.523438 L 38.484375 27.523438 C 37.957031 27.523438 37.53125 27.097656 37.53125 26.570312 C 37.53125 26.042969 37.957031 25.613281 38.484375 25.613281 L 41.9375 25.613281 C 42.464844 25.613281 42.890625 26.042969 42.890625 26.570312 C 42.890625 27.097656 42.464844 27.523438 41.9375 27.523438 Z M 41.9375 27.523438 "/>
</g>
</svg>
