<?xml version="1.0" encoding="UTF-8"?>
<svg xmlns="http://www.w3.org/2000/svg" xmlns:xlink="http://www.w3.org/1999/xlink" width="105px" height="105px" viewBox="0 0 105 105" version="1.1">
<g id="surface1">
<path style=" stroke:none;fill-rule:nonzero;fill:rgb(24.705882%,77.254902%,94.117647%);fill-opacity:1;" d="M 52.5 0 C 81.496094 0 105 23.503906 105 52.5 C 105 81.496094 81.496094 105 52.5 105 C 23.503906 105 0 81.496094 0 52.5 C 0 23.503906 23.503906 0 52.5 0 Z M 52.5 0 "/>
<path style="fill-rule:nonzero;fill:rgb(100%,100%,100%);fill-opacity:1;stroke-width:1;stroke-linecap:butt;stroke-linejoin:miter;stroke:rgb(100%,100%,100%);stroke-opacity:1;stroke-miterlimit:4;" d="M 389.215238 428.849524 C 386.462857 428.849524 384.228571 431.08381 384.228571 433.83619 C 384.228571 436.588571 386.462857 438.855238 389.215238 438.855238 C 391.967619 438.855238 394.201905 436.588571 394.201905 433.83619 C 394.201905 431.08381 391.967619 428.849524 389.215238 428.849524 Z M 389.215238 428.849524 " transform="matrix(0.120634,0,0,0.120634,21.617647,21.617647)"/>
<path style="fill-rule:nonzero;fill:rgb(100%,100%,100%);fill-opacity:1;stroke-width:1;stroke-linecap:butt;stroke-linejoin:miter;stroke:rgb(100%,100%,100%);stroke-opacity:1;stroke-miterlimit:4;" d="M 254.99619 340.417143 C 252.24381 340.417143 250.009524 342.651429 250.009524 345.40381 C 250.009524 348.188571 252.24381 350.422857 254.99619 350.422857 C 257.780952 350.422857 260.015238 348.188571 260.015238 345.40381 C 260.015238 342.651429 257.780952 340.417143 254.99619 340.417143 Z M 254.99619 340.417143 " transform="matrix(0.120634,0,0,0.120634,21.617647,21.617647)"/>
<path style="fill-rule:nonzero;fill:rgb(100%,100%,100%);fill-opacity:1;stroke-width:1;stroke-linecap:butt;stroke-linejoin:miter;stroke:rgb(100%,100%,100%);stroke-opacity:1;stroke-miterlimit:4;" d="M 254.99619 261.990476 C 252.24381 261.990476 250.009524 264.224762 250.009524 266.977143 C 250.009524 269.761905 252.24381 271.99619 254.99619 271.99619 C 257.780952 271.99619 260.015238 269.761905 260.015238 266.977143 C 260.015238 264.224762 257.780952 261.990476 254.99619 261.990476 Z M 254.99619 261.990476 " transform="matrix(0.120634,0,0,0.120634,21.617647,21.617647)"/>
<path style="fill-rule:nonzero;fill:rgb(100%,100%,100%);fill-opacity:1;stroke-width:1;stroke-linecap:butt;stroke-linejoin:miter;stroke:rgb(100%,100%,100%);stroke-opacity:1;stroke-miterlimit:4;" d="M 122.784762 438.855238 C 125.537143 438.855238 127.771429 436.588571 127.771429 433.83619 C 127.771429 431.08381 125.537143 428.849524 122.784762 428.849524 C 120 428.849524 117.765714 431.08381 117.765714 433.83619 C 117.765714 436.588571 120 438.855238 122.784762 438.855238 Z M 122.784762 438.855238 " transform="matrix(0.120634,0,0,0.120634,21.617647,21.617647)"/>
<path style="fill-rule:nonzero;fill:rgb(100%,100%,100%);fill-opacity:1;stroke-width:1;stroke-linecap:butt;stroke-linejoin:miter;stroke:rgb(100%,100%,100%);stroke-opacity:1;stroke-miterlimit:4;" d="M 260.015238 423.830476 C 260.015238 426.582857 257.780952 428.849524 254.99619 428.849524 C 252.24381 428.849524 250.009524 426.582857 250.009524 423.830476 C 250.009524 421.078095 252.24381 418.84381 254.99619 418.84381 C 257.780952 418.84381 260.015238 421.078095 260.015238 423.830476 Z M 260.015238 423.830476 " transform="matrix(0.120634,0,0,0.120634,21.617647,21.617647)"/>
<path style="fill-rule:nonzero;fill:rgb(100%,100%,100%);fill-opacity:1;stroke-width:1;stroke-linecap:butt;stroke-linejoin:miter;stroke:rgb(100%,100%,100%);stroke-opacity:1;stroke-miterlimit:4;" d="M 249.750476 188.582857 C 249.750476 191.335238 251.984762 193.569524 254.737143 193.569524 C 257.489524 193.569524 259.75619 191.335238 259.75619 188.582857 C 259.75619 185.798095 257.489524 183.56381 254.737143 183.56381 C 251.984762 183.56381 249.750476 185.798095 249.750476 188.582857 Z M 249.750476 188.582857 " transform="matrix(0.120634,0,0,0.120634,21.617647,21.617647)"/>
<path style="fill-rule:nonzero;fill:rgb(100%,100%,100%);fill-opacity:1;stroke-width:1;stroke-linecap:butt;stroke-linejoin:miter;stroke:rgb(100%,100%,100%);stroke-opacity:1;stroke-miterlimit:4;" d="M 121.910476 151.96 C 122.169524 152.024762 122.428571 152.024762 122.687619 152.024762 C 124.274286 152.024762 125.699048 150.95619 126.055238 149.369524 L 126.346667 148.009524 C 126.8 146.16381 125.634286 144.318095 123.788571 143.864762 C 121.942857 143.44381 120.064762 144.609524 119.64381 146.455238 L 119.32 147.815238 C 118.899048 149.660952 120.064762 151.539048 121.910476 151.96 Z M 121.910476 151.96 " transform="matrix(0.120634,0,0,0.120634,21.617647,21.617647)"/>
<path style="fill-rule:nonzero;fill:rgb(100%,100%,100%);fill-opacity:1;stroke-width:1;stroke-linecap:butt;stroke-linejoin:miter;stroke:rgb(100%,100%,100%);stroke-opacity:1;stroke-miterlimit:4;" d="M 431.180952 417.580952 C 416.83619 216.041905 379.08 95.358095 378.72381 94.16 C 378.659048 93.998095 378.594286 93.868571 378.529524 93.706667 C 366.192381 67.801905 322.478095 50.64 316.552381 48.405714 L 310.140952 42.900952 L 290.129524 25.674286 C 290.097143 25.641905 290.064762 25.641905 290.032381 25.609524 C 289.870476 25.48 289.67619 25.350476 289.481905 25.253333 C 289.417143 25.220952 289.384762 25.188571 289.32 25.15619 C 289.060952 25.059048 288.801905 24.961905 288.542857 24.929524 C 288.510476 24.897143 288.445714 24.897143 288.413333 24.897143 C 288.219048 24.864762 288.057143 24.864762 287.895238 24.864762 L 224.104762 24.864762 C 223.942857 24.864762 223.780952 24.864762 223.619048 24.897143 C 223.554286 24.897143 223.521905 24.897143 223.457143 24.929524 C 223.198095 24.961905 222.939048 25.059048 222.68 25.15619 C 222.615238 25.188571 222.582857 25.220952 222.518095 25.253333 C 222.32381 25.350476 222.129524 25.48 221.967619 25.609524 C 221.935238 25.641905 221.902857 25.641905 221.870476 25.674286 L 201.859048 42.900952 L 195.447619 48.405714 C 189.521905 50.64 145.807619 67.801905 133.470476 93.706667 C 133.405714 93.868571 133.340952 93.998095 133.27619 94.16 C 133.24381 94.257143 129.681905 105.558095 124.43619 126.540952 C 123.950476 128.419048 125.08381 130.264762 126.929524 130.750476 C 127.220952 130.815238 127.48 130.847619 127.771429 130.847619 C 129.325714 130.847619 130.718095 129.811429 131.106667 128.224762 C 135.899048 109.087619 139.266667 98.142857 139.784762 96.459048 C 151.700952 71.914286 197.940952 54.849524 198.394286 54.687619 C 198.55619 54.622857 198.718095 54.558095 198.88 54.460952 C 194.573333 83.150476 200.434286 112.649524 200.725714 114.009524 C 200.984762 115.24 201.859048 116.24381 203.024762 116.6 C 203.380952 116.729524 203.737143 116.794286 204.093333 116.794286 C 204.967619 116.794286 205.777143 116.470476 206.424762 115.887619 C 209.047619 113.491429 211.961905 111.289524 215.135238 109.249524 C 215.847619 110.415238 216.430476 111.386667 216.754286 111.937143 C 232.394286 138.295238 240.68381 168.798095 240.68381 200.142857 L 240.68381 479.914286 C 175.112381 476.967619 151.215238 455.401905 147.782857 451.937143 C 145.904762 444.619048 144.285714 421.207619 146.811429 352.754286 L 159.79619 129.908571 L 159.828571 129.584762 C 159.958095 127.706667 158.500952 126.055238 156.590476 125.925714 C 154.712381 125.828571 153.060952 127.253333 152.931429 129.16381 L 152.931429 129.422857 C 152.931429 129.455238 152.899048 129.487619 152.899048 129.487619 L 152.899048 129.52 C 152.672381 132.56381 143.44381 257.748571 139.914286 352.398095 L 136.32 414.375238 L 87.942857 414.375238 C 95.940952 305.089524 110.674286 220.704762 121.71619 168.96 C 122.104762 167.114286 120.939048 165.268571 119.060952 164.88 C 117.182857 164.459048 115.369524 165.657143 114.980952 167.535238 C 103.777143 220.057143 88.752381 306.093333 80.819048 417.580952 C 80.041905 428.36381 79.329524 439.340952 78.746667 450.15619 C 78.681905 451.095238 79.005714 452.001905 79.653333 452.681905 C 80.300952 453.394286 81.175238 453.782857 82.114286 453.782857 L 125.601905 454.462857 C 125.666667 454.462857 125.76381 454.462857 125.828571 454.462857 C 131.88381 454.462857 137.161905 451.095238 139.881905 446.07619 C 140.270476 449.832381 140.788571 452.714286 141.40381 454.689524 C 141.533333 455.142857 141.76 455.531429 142.051429 455.887619 C 143.022857 457.053333 166.628571 484.318095 243.954286 486.940952 C 243.986667 486.940952 243.986667 486.940952 244.019048 486.940952 C 244.051429 486.940952 244.08381 486.973333 244.11619 486.973333 L 244.213333 486.973333 C 244.990476 487.005714 245.767619 487.005714 246.544762 487.038095 C 246.998095 487.038095 247.451429 487.038095 247.904762 487.070476 L 247.937143 487.070476 C 247.969524 487.070476 247.969524 487.070476 248.001905 487.070476 C 249.426667 487.102857 250.851429 487.135238 252.27619 487.135238 C 252.27619 487.135238 252.308571 487.135238 252.308571 487.135238 C 252.859048 487.135238 253.441905 487.135238 253.992381 487.135238 C 254.672381 487.135238 255.32 487.167619 256 487.167619 C 257.00381 487.167619 257.975238 487.135238 258.946667 487.135238 C 258.979048 487.135238 258.979048 487.135238 259.011429 487.135238 L 261.11619 487.102857 C 262.8 487.102857 264.451429 487.038095 266.102857 487.005714 L 268.110476 486.940952 C 268.110476 486.940952 268.142857 486.940952 268.142857 486.940952 C 282.779048 486.455238 296.508571 485.030476 308.975238 482.666667 C 310.853333 482.342857 312.08381 480.529524 311.727619 478.651429 C 311.371429 476.773333 309.590476 475.542857 307.712381 475.899048 C 296.605714 477.971429 284.430476 479.331429 271.478095 479.914286 L 271.478095 200.142857 C 271.478095 168.798095 279.735238 138.295238 295.407619 111.904762 C 295.699048 111.419048 296.281905 110.447619 296.961905 109.314286 C 300.070476 111.321905 302.952381 113.491429 305.575238 115.887619 C 306.222857 116.470476 307.064762 116.794286 307.906667 116.794286 C 308.262857 116.794286 308.619048 116.729524 308.975238 116.6 C 310.140952 116.211429 311.015238 115.24 311.274286 114.009524 C 311.565714 112.649524 317.426667 83.150476 313.12 54.460952 C 313.281905 54.558095 313.44381 54.622857 313.605714 54.687619 C 314.059048 54.849524 360.299048 71.881905 372.215238 96.459048 C 374.028571 102.384762 409.874286 220.024762 424.057143 414.375238 L 375.68 414.375238 L 372.085714 352.398095 C 368.55619 257.262857 359.230476 131.20381 359.100952 129.455238 C 359.068571 129.19619 359.068571 129.066667 359.068571 129.066667 C 358.874286 127.188571 357.222857 125.79619 355.312381 125.958095 C 353.434286 126.152381 352.041905 127.80381 352.20381 129.681905 L 365.188571 352.754286 C 367.714286 421.24 366.095238 444.619048 364.217143 451.937143 C 362.76 453.426667 357.708571 458.121905 347.605714 463.205714 C 345.889524 464.047619 345.209524 466.12 346.051429 467.83619 C 346.666667 469.034286 347.864762 469.746667 349.127619 469.746667 C 349.678095 469.746667 350.19619 469.617143 350.681905 469.358095 C 364.346667 462.493333 369.721905 456.146667 369.948571 455.887619 C 370.24 455.531429 370.466667 455.142857 370.59619 454.689524 C 371.211429 452.714286 371.729524 449.832381 372.118095 446.07619 C 374.838095 451.095238 380.11619 454.462857 386.171429 454.462857 C 386.23619 454.462857 386.333333 454.462857 386.398095 454.462857 L 429.885714 453.782857 C 430.824762 453.782857 431.699048 453.394286 432.346667 452.681905 C 432.994286 452.001905 433.318095 451.095238 433.285714 450.15619 C 432.670476 439.340952 431.958095 428.36381 431.180952 417.580952 Z M 134.862857 439.017143 C 134.60381 443.841905 130.620952 447.565714 125.828571 447.565714 C 125.79619 447.565714 125.731429 447.565714 125.699048 447.565714 L 85.838095 446.950476 C 86.32381 438.401905 86.874286 429.820952 87.457143 421.272381 L 135.899048 421.272381 Z M 283.782857 31.761905 L 280.220952 52.226667 L 231.779048 52.226667 L 228.217143 31.761905 Z M 279.022857 59.12381 L 272.740952 95.19619 C 271.478095 97.20381 270.182857 99.27619 269.340952 100.700952 C 264.192381 109.055238 259.75619 117.830476 256.064762 126.864762 C 252.373333 117.798095 247.937143 109.022857 242.788571 100.668571 C 242.270476 99.826667 241.622857 98.790476 240.910476 97.657143 C 240.392381 96.750476 239.809524 95.84381 239.226667 94.904762 L 232.977143 59.12381 Z M 214.552381 101.510476 C 211.702857 103.161905 209.015238 104.942857 206.521905 106.853333 C 204.838095 95.584762 202.020952 69.906667 207.201905 47.401905 L 221.740952 34.870476 L 225.497143 56.371429 L 232.038095 93.933333 C 231.908571 93.965714 231.779048 94.030476 231.649524 94.062857 C 231.617143 94.062857 231.584762 94.062857 231.552381 94.095238 C 231.455238 94.127619 231.325714 94.16 231.228571 94.192381 C 229.415238 94.742857 227.375238 95.455238 225.302857 96.297143 C 224.979048 96.426667 224.622857 96.588571 224.201905 96.750476 C 220.834286 98.142857 217.59619 99.761905 214.552381 101.510476 Z M 262.573333 480.173333 C 262.055238 480.205714 261.537143 480.205714 261.019048 480.205714 L 258.914286 480.238095 C 257.942857 480.238095 257.00381 480.238095 256.032381 480.238095 C 255.384762 480.270476 254.704762 480.238095 253.992381 480.238095 C 253.441905 480.238095 252.92381 480.238095 252.340952 480.238095 C 250.948571 480.205714 249.55619 480.205714 248.16381 480.173333 L 248.066667 480.173333 C 247.904762 480.140952 247.742857 480.140952 247.580952 480.140952 L 247.580952 200.142857 C 247.580952 167.567619 238.967619 135.834286 222.68 108.407619 C 222.388571 107.889524 221.805714 106.950476 221.093333 105.784762 C 222.971429 104.813333 224.914286 103.939048 226.921905 103.097143 C 227.245714 102.967619 227.569524 102.838095 227.860952 102.708571 C 230.289524 101.737143 232.167619 101.121905 233.300952 100.765714 L 233.689524 100.668571 L 233.689524 100.63619 C 233.980952 100.571429 234.272381 100.474286 234.531429 100.409524 C 234.693333 100.700952 234.887619 100.992381 235.049524 101.28381 C 235.761905 102.417143 236.409524 103.485714 236.927619 104.295238 C 243.371429 114.819048 248.714286 126.055238 252.794286 137.712381 C 252.826667 137.712381 252.826667 137.744762 252.826667 137.777143 C 259.270476 156.266667 262.573333 175.630476 262.573333 195.318095 Z M 289.449524 108.407619 C 278.601905 126.702857 271.154286 146.87619 267.398095 167.988571 C 265.779048 157.335238 263.220952 146.84381 259.72381 136.64381 C 263.706667 125.407619 268.92 114.56 275.201905 104.295238 C 275.849524 103.226667 276.691429 101.866667 277.598095 100.441905 C 279.44381 100.96 281.289524 101.607619 283.038095 102.287619 L 283.102857 102.287619 L 283.847619 102.579048 C 283.944762 102.611429 284.041905 102.64381 284.139048 102.708571 C 284.300952 102.773333 284.495238 102.838095 284.689524 102.935238 C 285.110476 103.097143 285.531429 103.291429 285.887619 103.420952 C 285.92 103.453333 285.984762 103.453333 286.017143 103.485714 L 286.891429 103.874286 C 287.150476 104.00381 287.441905 104.100952 287.700952 104.230476 L 289.514286 105.104762 C 289.805714 105.234286 290.064762 105.36381 290.35619 105.525714 C 290.550476 105.622857 290.777143 105.752381 291.00381 105.849524 C 290.32381 106.982857 289.773333 107.889524 289.449524 108.407619 Z M 305.478095 106.853333 C 303.017143 104.942857 300.361905 103.226667 297.609524 101.607619 C 297.577143 101.607619 297.577143 101.575238 297.544762 101.575238 L 296.540952 100.992381 C 296.184762 100.798095 295.828571 100.60381 295.504762 100.441905 C 295.504762 100.441905 295.504762 100.409524 295.472381 100.409524 C 294.824762 100.053333 294.144762 99.729524 293.497143 99.373333 C 293.173333 99.211429 292.817143 99.017143 292.493333 98.887619 L 291.554286 98.434286 C 291.327619 98.337143 291.100952 98.207619 290.874286 98.110476 L 290.615238 97.980952 C 290.291429 97.851429 289.967619 97.689524 289.67619 97.56 L 288.769524 97.171429 C 288.769524 97.139048 288.769524 97.139048 288.769524 97.139048 C 288.251429 96.944762 287.765714 96.718095 287.312381 96.52381 C 287.312381 96.52381 287.28 96.52381 287.28 96.52381 C 287.247619 96.52381 287.215238 96.491429 287.182857 96.491429 C 287.053333 96.459048 286.92381 96.394286 286.729524 96.297143 C 286.438095 96.2 286.146667 96.070476 285.855238 95.973333 L 285.660952 95.87619 L 285.56381 95.84381 C 283.718095 95.131429 281.84 94.51619 279.961905 93.933333 L 290.259048 34.870476 L 304.798095 47.401905 C 309.946667 69.874286 307.161905 95.584762 305.478095 106.853333 Z M 386.300952 447.565714 C 381.47619 447.598095 377.428571 443.874286 377.137143 439.017143 L 376.100952 421.272381 L 424.542857 421.272381 C 425.125714 429.820952 425.67619 438.401905 426.161905 446.950476 Z M 386.300952 447.565714 " transform="matrix(0.120634,0,0,0.120634,21.617647,21.617647)"/>
<path style="fill-rule:nonzero;fill:rgb(100%,100%,100%);fill-opacity:1;stroke-width:1;stroke-linecap:butt;stroke-linejoin:miter;stroke:rgb(100%,100%,100%);stroke-opacity:1;stroke-miterlimit:4;" d="M 328.015238 470.944762 L 327.140952 471.20381 C 325.295238 471.754286 324.259048 473.697143 324.809524 475.510476 C 325.262857 477 326.655238 477.971429 328.112381 477.971429 C 328.468571 477.971429 328.792381 477.906667 329.11619 477.809524 L 330.055238 477.518095 C 331.868571 476.967619 332.904762 475.024762 332.321905 473.211429 C 331.771429 471.398095 329.828571 470.361905 328.015238 470.944762 Z M 328.015238 470.944762 " transform="matrix(0.120634,0,0,0.120634,21.617647,21.617647)"/>
</g>
</svg>
