<?xml version="1.0" encoding="UTF-8"?>
<svg xmlns="http://www.w3.org/2000/svg" xmlns:xlink="http://www.w3.org/1999/xlink" width="105px" height="105px" viewBox="0 0 105 105" version="1.1">
<g id="surface1">
<path style=" stroke:none;fill-rule:nonzero;fill:rgb(24.705882%,77.254902%,94.117647%);fill-opacity:1;" d="M 52.5 0 C 81.496094 0 105 23.503906 105 52.5 C 105 81.496094 81.496094 105 52.5 105 C 23.503906 105 0 81.496094 0 52.5 C 0 23.503906 23.503906 0 52.5 0 Z M 52.5 0 "/>
<path style="fill-rule:nonzero;fill:rgb(100%,100%,100%);fill-opacity:1;stroke-width:1;stroke-linecap:butt;stroke-linejoin:miter;stroke:rgb(100%,100%,100%);stroke-opacity:1;stroke-miterlimit:4;" d="M 463.497143 88.914286 C 463.497143 93.382857 467.12381 97.009524 471.592381 97.009524 C 476.060952 97.009524 479.655238 93.382857 479.655238 88.914286 C 479.655238 57.731429 454.268571 32.344762 423.085714 32.344762 C 418.617143 32.344762 414.990476 35.939048 414.990476 40.407619 C 414.990476 44.87619 418.617143 48.502857 423.085714 48.502857 C 445.36381 48.502857 463.497143 66.63619 463.497143 88.914286 Z M 463.497143 88.914286 " transform="matrix(0.120634,0,0,0.120634,21.617647,21.617647)"/>
<path style="fill-rule:nonzero;fill:rgb(100%,100%,100%);fill-opacity:1;stroke-width:1;stroke-linecap:butt;stroke-linejoin:miter;stroke:rgb(100%,100%,100%);stroke-opacity:1;stroke-miterlimit:4;" d="M 363.79619 210.180952 C 368.264762 210.180952 371.859048 206.586667 371.859048 202.118095 C 371.859048 197.649524 368.264762 194.022857 363.79619 194.022857 C 344.464762 194.022857 328.76 178.318095 328.76 158.986667 C 328.76 139.687619 344.464762 123.950476 363.79619 123.950476 C 383.095238 123.950476 398.832381 139.687619 398.832381 158.986667 C 398.832381 169.024762 394.493333 178.609524 386.948571 185.28 C 383.613333 188.226667 383.289524 193.342857 386.23619 196.678095 C 389.215238 200.013333 394.299048 200.337143 397.666667 197.390476 C 408.67619 187.67619 414.990476 173.655238 414.990476 158.986667 C 414.990476 130.750476 392.032381 107.792381 363.79619 107.792381 C 335.56 107.792381 312.601905 130.750476 312.601905 158.986667 C 312.601905 187.222857 335.56 210.180952 363.79619 210.180952 Z M 363.79619 210.180952 " transform="matrix(0.120634,0,0,0.120634,21.617647,21.617647)"/>
<path style="fill-rule:nonzero;fill:rgb(100%,100%,100%);fill-opacity:1;stroke-width:1;stroke-linecap:butt;stroke-linejoin:miter;stroke:rgb(100%,100%,100%);stroke-opacity:1;stroke-miterlimit:4;" d="M 137.420952 495.845714 L 51.190476 495.845714 C 31.891429 495.845714 16.154286 480.108571 16.154286 460.809524 L 16.154286 414.990476 L 115.887619 414.990476 C 120.32381 414.990476 123.950476 411.36381 123.950476 406.895238 C 123.950476 402.426667 120.32381 398.832381 115.887619 398.832381 L 16.154286 398.832381 L 16.154286 288.348571 C 16.154286 275.558095 19.36 262.832381 25.350476 251.56381 L 99.179048 113.167619 L 149.56381 113.167619 C 154.032381 113.167619 157.626667 109.573333 157.626667 105.104762 C 157.626667 100.63619 154.032381 97.009524 149.56381 97.009524 L 102.384762 97.009524 L 102.384762 51.190476 C 102.384762 31.891429 118.121905 16.154286 137.420952 16.154286 L 291.03619 16.154286 L 291.03619 33.931429 L 221.384762 49.409524 C 205.291429 53.00381 194.022857 67.024762 194.022857 83.539048 L 194.022857 97.009524 L 180.293333 97.009524 C 175.824762 97.009524 172.198095 100.63619 172.198095 105.104762 C 172.198095 109.573333 175.824762 113.167619 180.293333 113.167619 L 197.260952 113.167619 L 217.984762 152.024762 C 219.409524 154.744762 222.226667 156.299048 225.108571 156.299048 C 226.40381 156.299048 227.699048 155.975238 228.897143 155.327619 C 232.847619 153.255238 234.337143 148.333333 232.232381 144.415238 L 210.180952 103.064762 L 210.180952 83.539048 C 210.180952 74.666667 216.23619 67.121905 224.914286 65.179048 L 300.88 48.308571 C 304.571429 47.499048 307.194286 44.19619 307.194286 40.407619 L 307.194286 8.091429 C 307.194286 3.622857 303.567619 -0.00380952 299.131429 -0.00380952 L 137.420952 -0.00380952 C 109.217143 -0.00380952 86.226667 22.954286 86.226667 51.190476 L 86.226667 103.064762 L 11.102857 243.954286 C 3.849524 257.554286 -0.00380952 272.902857 -0.00380952 288.348571 L -0.00380952 460.809524 C -0.00380952 489.045714 22.954286 512.00381 51.190476 512.00381 L 137.420952 512.00381 C 141.889524 512.00381 145.51619 508.377143 145.51619 503.908571 C 145.51619 499.44 141.889524 495.845714 137.420952 495.845714 Z M 137.420952 495.845714 " transform="matrix(0.120634,0,0,0.120634,21.617647,21.617647)"/>
<path style="fill-rule:nonzero;fill:rgb(100%,100%,100%);fill-opacity:1;stroke-width:1;stroke-linecap:butt;stroke-linejoin:miter;stroke:rgb(100%,100%,100%);stroke-opacity:1;stroke-miterlimit:4;" d="M 342.230476 97.009524 C 346.699048 97.009524 350.325714 93.382857 350.325714 88.914286 C 350.325714 48.794286 382.965714 16.154286 423.085714 16.154286 C 463.205714 16.154286 495.845714 48.794286 495.845714 88.914286 C 495.845714 123.4 471.365714 153.384762 437.624762 160.217143 C 433.253333 161.12381 430.43619 165.398095 431.310476 169.769524 C 432.087619 173.590476 435.455238 176.245714 439.24381 176.245714 C 439.761905 176.245714 440.312381 176.180952 440.862857 176.08381 C 482.08381 167.697143 512.00381 131.041905 512.00381 88.914286 C 512.00381 39.889524 472.110476 -0.00380952 423.085714 -0.00380952 C 374.028571 -0.00380952 334.135238 39.889524 334.135238 88.914286 C 334.135238 93.382857 337.761905 97.009524 342.230476 97.009524 Z M 342.230476 97.009524 " transform="matrix(0.120634,0,0,0.120634,21.617647,21.617647)"/>
<path style="fill-rule:nonzero;fill:rgb(100%,100%,100%);fill-opacity:1;stroke-width:1;stroke-linecap:butt;stroke-linejoin:miter;stroke:rgb(100%,100%,100%);stroke-opacity:1;stroke-miterlimit:4;" d="M 439.24381 291.03619 C 425.870476 291.03619 414.990476 280.15619 414.990476 266.782857 C 414.990476 262.314286 411.36381 258.687619 406.895238 258.687619 C 402.426667 258.687619 398.832381 262.314286 398.832381 266.782857 C 398.832381 289.060952 416.965714 307.194286 439.24381 307.194286 C 461.521905 307.194286 479.655238 289.060952 479.655238 266.782857 C 479.655238 244.504762 461.521905 226.371429 439.24381 226.371429 C 429.270476 226.371429 419.718095 229.998095 412.302857 236.63619 C 408.967619 239.615238 408.67619 244.731429 411.655238 248.066667 C 414.634286 251.401905 419.750476 251.660952 423.085714 248.714286 C 427.521905 244.731429 433.253333 242.529524 439.24381 242.529524 C 452.617143 242.529524 463.497143 253.409524 463.497143 266.782857 C 463.497143 280.15619 452.617143 291.03619 439.24381 291.03619 Z M 439.24381 291.03619 " transform="matrix(0.120634,0,0,0.120634,21.617647,21.617647)"/>
<path style="fill-rule:nonzero;fill:rgb(100%,100%,100%);fill-opacity:1;stroke-width:1;stroke-linecap:butt;stroke-linejoin:miter;stroke:rgb(100%,100%,100%);stroke-opacity:1;stroke-miterlimit:4;" d="M 447.339048 439.24381 C 447.339048 422.891429 434.030476 409.615238 417.678095 409.615238 C 401.325714 409.615238 388.049524 422.891429 388.049524 439.24381 C 388.049524 455.59619 401.325714 468.872381 417.678095 468.872381 C 434.030476 468.872381 447.339048 455.59619 447.339048 439.24381 Z M 404.207619 439.24381 C 404.207619 431.79619 410.262857 425.773333 417.678095 425.773333 C 425.125714 425.773333 431.148571 431.79619 431.148571 439.24381 C 431.148571 446.659048 425.125714 452.714286 417.678095 452.714286 C 410.262857 452.714286 404.207619 446.659048 404.207619 439.24381 Z M 404.207619 439.24381 " transform="matrix(0.120634,0,0,0.120634,21.617647,21.617647)"/>
<path style="fill-rule:nonzero;fill:rgb(100%,100%,100%);fill-opacity:1;stroke-width:1;stroke-linecap:butt;stroke-linejoin:miter;stroke:rgb(100%,100%,100%);stroke-opacity:1;stroke-miterlimit:4;" d="M 291.03619 439.24381 C 291.03619 455.59619 304.344762 468.872381 320.664762 468.872381 C 337.017143 468.872381 350.325714 455.59619 350.325714 439.24381 C 350.325714 422.891429 337.017143 409.615238 320.664762 409.615238 C 304.344762 409.615238 291.03619 422.891429 291.03619 439.24381 Z M 334.135238 439.24381 C 334.135238 446.659048 328.112381 452.714286 320.664762 452.714286 C 313.249524 452.714286 307.194286 446.659048 307.194286 439.24381 C 307.194286 431.79619 313.249524 425.773333 320.664762 425.773333 C 328.112381 425.773333 334.135238 431.79619 334.135238 439.24381 Z M 334.135238 439.24381 " transform="matrix(0.120634,0,0,0.120634,21.617647,21.617647)"/>
<path style="fill-rule:nonzero;fill:rgb(100%,100%,100%);fill-opacity:1;stroke-width:1;stroke-linecap:butt;stroke-linejoin:miter;stroke:rgb(100%,100%,100%);stroke-opacity:1;stroke-miterlimit:4;" d="M 204.805714 396.112381 C 204.805714 412.464762 218.081905 425.773333 234.434286 425.773333 C 250.786667 425.773333 264.095238 412.464762 264.095238 396.112381 C 264.095238 379.792381 250.786667 366.48381 234.434286 366.48381 C 218.081905 366.48381 204.805714 379.792381 204.805714 396.112381 Z M 247.904762 396.112381 C 247.904762 403.56 241.881905 409.615238 234.434286 409.615238 C 227.019048 409.615238 220.96381 403.56 220.96381 396.112381 C 220.96381 388.697143 227.019048 382.641905 234.434286 382.641905 C 241.881905 382.641905 247.904762 388.697143 247.904762 396.112381 Z M 247.904762 396.112381 " transform="matrix(0.120634,0,0,0.120634,21.617647,21.617647)"/>
<path style="fill-rule:nonzero;fill:rgb(100%,100%,100%);fill-opacity:1;stroke-width:1;stroke-linecap:butt;stroke-linejoin:miter;stroke:rgb(100%,100%,100%);stroke-opacity:1;stroke-miterlimit:4;" d="M 482.342857 344.918095 C 482.051429 344.918095 481.76 344.950476 481.468571 344.950476 C 472.499048 337.95619 461.457143 334.135238 450.026667 334.135238 L 375.874286 334.135238 C 370.401905 327.561905 362.209524 323.352381 353.013333 323.352381 C 343.817143 323.352381 335.592381 327.561905 330.152381 334.135238 L 202.118095 334.135238 C 173.881905 334.135238 150.891429 357.125714 150.891429 385.361905 L 150.891429 437.948571 C 144.318095 443.388571 140.140952 451.613333 140.140952 460.809524 C 140.140952 473.340952 147.977143 484.091429 159.019048 488.398095 C 168.377143 503.001905 184.664762 512.00381 202.118095 512.00381 L 374.579048 512.00381 C 379.047619 512.00381 382.641905 508.377143 382.641905 503.908571 C 382.641905 499.44 379.047619 495.845714 374.579048 495.845714 L 202.118095 495.845714 C 194.217143 495.845714 186.64 493.125714 180.552381 488.398095 C 191.594286 484.059048 199.398095 473.340952 199.398095 460.809524 C 199.398095 444.457143 186.121905 431.148571 169.769524 431.148571 C 168.862857 431.148571 167.95619 431.213333 167.081905 431.278095 L 167.081905 385.361905 C 167.081905 366.030476 182.786667 350.325714 202.118095 350.325714 L 323.481905 350.325714 C 323.417143 351.2 323.352381 352.106667 323.352381 353.013333 C 323.352381 369.365714 336.660952 382.641905 353.013333 382.641905 C 369.365714 382.641905 382.641905 369.365714 382.641905 353.013333 C 382.641905 352.106667 382.609524 351.2 382.512381 350.325714 L 450.026667 350.325714 C 454.300952 350.325714 458.542857 351.102857 462.460952 352.592381 C 456.470476 358.032381 452.714286 365.868571 452.714286 374.579048 C 452.714286 390.899048 466.022857 404.207619 482.342857 404.207619 C 483.281905 404.207619 484.15619 404.175238 485.062857 404.078095 L 485.062857 460.809524 C 485.062857 480.108571 469.325714 495.845714 450.026667 495.845714 L 406.895238 495.845714 C 402.426667 495.845714 398.832381 499.44 398.832381 503.908571 C 398.832381 508.377143 402.426667 512.00381 406.895238 512.00381 L 450.026667 512.00381 C 478.262857 512.00381 501.220952 489.045714 501.220952 460.809524 L 501.220952 397.407619 C 507.794286 391.967619 512.00381 383.742857 512.00381 374.579048 C 512.00381 358.226667 498.695238 344.918095 482.342857 344.918095 Z M 169.769524 447.339048 C 177.184762 447.339048 183.24 453.361905 183.24 460.809524 C 183.24 468.224762 177.184762 474.28 169.769524 474.28 C 162.321905 474.28 156.299048 468.224762 156.299048 460.809524 C 156.299048 453.361905 162.321905 447.339048 169.769524 447.339048 Z M 353.013333 366.48381 C 345.565714 366.48381 339.542857 360.428571 339.542857 353.013333 C 339.542857 345.565714 345.565714 339.542857 353.013333 339.542857 C 360.428571 339.542857 366.48381 345.565714 366.48381 353.013333 C 366.48381 360.428571 360.428571 366.48381 353.013333 366.48381 Z M 482.342857 388.049524 C 474.927619 388.049524 468.872381 381.994286 468.872381 374.579048 C 468.872381 367.131429 474.927619 361.108571 482.342857 361.108571 C 489.790476 361.108571 495.845714 367.131429 495.845714 374.579048 C 495.845714 381.994286 489.790476 388.049524 482.342857 388.049524 Z M 482.342857 388.049524 " transform="matrix(0.120634,0,0,0.120634,21.617647,21.617647)"/>
<path style="fill-rule:nonzero;fill:rgb(100%,100%,100%);fill-opacity:1;stroke-width:1;stroke-linecap:butt;stroke-linejoin:miter;stroke:rgb(100%,100%,100%);stroke-opacity:1;stroke-miterlimit:4;" d="M 288.348571 319.045714 C 292.817143 319.045714 296.411429 315.451429 296.411429 310.982857 L 296.411429 288.348571 C 296.411429 272.902857 292.590476 257.554286 285.337143 243.954286 L 246.577143 171.291429 C 244.472381 167.340952 239.582857 165.851429 235.632381 167.95619 C 231.681905 170.060952 230.192381 174.950476 232.297143 178.900952 L 271.057143 251.56381 C 274.068571 257.230476 276.4 263.253333 277.921905 269.470476 L 61.973333 269.470476 C 57.504762 269.470476 53.910476 273.097143 53.910476 277.565714 C 53.910476 282.034286 57.504762 285.628571 61.973333 285.628571 L 280.188571 285.628571 C 280.220952 286.535238 280.253333 287.441905 280.253333 288.348571 L 280.253333 310.982857 C 280.253333 315.451429 283.88 319.045714 288.348571 319.045714 Z M 288.348571 319.045714 " transform="matrix(0.120634,0,0,0.120634,21.617647,21.617647)"/>
</g>
</svg>
