<?xml version="1.0" encoding="UTF-8"?>
<svg xmlns="http://www.w3.org/2000/svg" xmlns:xlink="http://www.w3.org/1999/xlink" width="105px" height="105px" viewBox="0 0 105 105" version="1.1">
<g id="surface1">
<path style=" stroke:none;fill-rule:nonzero;fill:rgb(24.705882%,77.254902%,94.117647%);fill-opacity:1;" d="M 52.5 0 C 81.496094 0 105 23.503906 105 52.5 C 105 81.496094 81.496094 105 52.5 105 C 23.503906 105 0 81.496094 0 52.5 C 0 23.503906 23.503906 0 52.5 0 Z M 52.5 0 "/>
<path style="fill-rule:nonzero;fill:rgb(100%,100%,100%);fill-opacity:1;stroke-width:1;stroke-linecap:butt;stroke-linejoin:miter;stroke:rgb(100%,100%,100%);stroke-opacity:1;stroke-miterlimit:4;" d="M 321.829405 405.305521 L 109.930595 405.305521 C 107.445699 405.305521 105.425015 403.284836 105.425015 400.79994 L 105.425015 30.96006 C 105.425015 28.475164 107.445699 26.454479 109.930595 26.454479 L 321.829405 26.454479 C 324.341607 26.454479 326.334985 28.475164 326.334985 30.96006 L 326.334985 400.79994 C 326.334985 403.284836 324.341607 405.305521 321.829405 405.305521 Z M 114.408869 396.29436 L 317.351131 396.29436 L 317.351131 35.46564 L 114.408869 35.46564 Z M 114.408869 396.29436 " transform="matrix(0.143052,0,0,0.143052,21.617984,21.617984)"/>
<path style="fill-rule:nonzero;fill:rgb(100%,100%,100%);fill-opacity:1;stroke-width:1;stroke-linecap:butt;stroke-linejoin:miter;stroke:rgb(100%,100%,100%);stroke-opacity:1;stroke-miterlimit:4;" d="M 215.88 238.571741 C 214.678512 238.571741 213.531637 238.10753 212.685134 237.261027 L 194.498973 219.074866 C 192.751354 217.29994 192.751354 214.46006 194.498973 212.71244 L 212.685134 194.498973 C 213.531637 193.65247 214.678512 193.188259 215.88 193.188259 C 217.081488 193.188259 218.228363 193.65247 219.074866 194.498973 L 237.261027 212.71244 C 238.10753 213.531637 238.571741 214.678512 238.571741 215.88 C 238.571741 217.081488 238.10753 218.228363 237.261027 219.074866 L 219.074866 237.261027 C 218.228363 238.10753 217.081488 238.571741 215.88 238.571741 Z M 204.028958 215.88 L 215.88 227.731042 L 227.731042 215.88 L 215.88 204.028958 Z M 204.028958 215.88 " transform="matrix(0.143052,0,0,0.143052,21.617984,21.617984)"/>
<path style="fill-rule:nonzero;fill:rgb(100%,100%,100%);fill-opacity:1;stroke-width:1;stroke-linecap:butt;stroke-linejoin:miter;stroke:rgb(100%,100%,100%);stroke-opacity:1;stroke-miterlimit:4;" d="M 215.88 142.616533 C 214.733125 142.616533 213.58625 142.179628 212.685134 141.278512 L 194.498973 123.092351 C 192.751354 121.317426 192.751354 118.477545 194.498973 116.729926 L 212.685134 98.516458 C 213.531637 97.669955 214.678512 97.205744 215.88 97.205744 C 217.081488 97.205744 218.228363 97.669955 219.074866 98.516458 L 237.261027 116.729926 C 238.10753 117.576429 238.571741 118.695997 238.571741 119.897485 C 238.571741 121.098973 238.10753 122.245848 237.261027 123.092351 L 219.074866 141.278512 C 218.17375 142.179628 217.026875 142.616533 215.88 142.616533 Z M 204.028958 119.897485 L 215.88 131.748527 L 227.731042 119.897485 L 215.88 108.07375 Z M 204.028958 119.897485 " transform="matrix(0.143052,0,0,0.143052,21.617984,21.617984)"/>
<path style="fill-rule:nonzero;fill:rgb(100%,100%,100%);fill-opacity:1;stroke-width:1;stroke-linecap:butt;stroke-linejoin:miter;stroke:rgb(100%,100%,100%);stroke-opacity:1;stroke-miterlimit:4;" d="M 215.88 334.554256 C 214.678512 334.554256 213.531637 334.090045 212.685134 333.243542 L 194.498973 315.030074 C 192.751354 313.282455 192.751354 310.442574 194.498973 308.667649 L 212.685134 290.481488 C 214.46006 288.706562 217.29994 288.706562 219.074866 290.481488 L 237.261027 308.667649 C 238.10753 309.514152 238.571741 310.661027 238.571741 311.862515 C 238.571741 313.064003 238.10753 314.210878 237.261027 315.030074 L 219.074866 333.243542 C 218.228363 334.090045 217.081488 334.554256 215.88 334.554256 Z M 204.028958 311.862515 L 215.88 323.68625 L 227.731042 311.862515 L 215.88 300.011473 Z M 204.028958 311.862515 " transform="matrix(0.143052,0,0,0.143052,21.617984,21.617984)"/>
<path style="fill-rule:nonzero;fill:rgb(100%,100%,100%);fill-opacity:1;stroke-width:1;stroke-linecap:butt;stroke-linejoin:miter;stroke:rgb(100%,100%,100%);stroke-opacity:1;stroke-miterlimit:4;" d="M 170.059613 188.027321 C 168.912738 188.027321 167.765863 187.590417 166.892054 186.716607 L 151.245402 171.069955 C 149.470476 169.322336 149.470476 166.455149 151.245402 164.70753 L 166.892054 149.060878 C 167.738557 148.214375 168.858125 147.750164 170.059613 147.750164 C 171.261101 147.750164 172.407976 148.214375 173.254479 149.060878 L 188.901131 164.70753 C 189.747634 165.554033 190.211845 166.700908 190.211845 167.902396 C 190.211845 169.076577 189.747634 170.223452 188.901131 171.069955 L 173.254479 186.716607 C 172.38067 187.590417 171.206488 188.027321 170.059613 188.027321 Z M 160.775387 167.902396 L 170.059613 177.159315 L 179.343839 167.902396 L 170.059613 158.61817 Z M 160.775387 167.902396 " transform="matrix(0.143052,0,0,0.143052,21.617984,21.617984)"/>
<path style="fill-rule:nonzero;fill:rgb(100%,100%,100%);fill-opacity:1;stroke-width:1;stroke-linecap:butt;stroke-linejoin:miter;stroke:rgb(100%,100%,100%);stroke-opacity:1;stroke-miterlimit:4;" d="M 170.059613 284.009836 C 168.912738 284.009836 167.765863 283.572932 166.892054 282.699122 L 151.245402 267.05247 C 149.470476 265.304851 149.470476 262.437664 151.245402 260.690045 L 166.892054 245.043393 C 167.738557 244.19689 168.858125 243.732679 170.059613 243.732679 C 171.261101 243.732679 172.407976 244.19689 173.254479 245.043393 L 188.901131 260.690045 C 189.747634 261.536548 190.211845 262.683423 190.211845 263.857604 C 190.211845 265.059092 189.747634 266.205967 188.901131 267.05247 L 173.254479 282.699122 C 172.38067 283.572932 171.206488 284.009836 170.059613 284.009836 Z M 160.775387 263.857604 L 170.059613 273.14183 L 179.343839 263.857604 L 170.059613 254.600685 Z M 160.775387 263.857604 " transform="matrix(0.143052,0,0,0.143052,21.617984,21.617984)"/>
<path style="fill-rule:nonzero;fill:rgb(100%,100%,100%);fill-opacity:1;stroke-width:1;stroke-linecap:butt;stroke-linejoin:miter;stroke:rgb(100%,100%,100%);stroke-opacity:1;stroke-miterlimit:4;" d="M 263.857604 222.269732 L 272.131488 230.570923 C 273.032604 231.444732 274.179479 231.881637 275.326354 231.881637 C 276.473229 231.881637 277.620104 231.444732 278.493914 230.570923 L 290.017277 219.074866 C 290.86378 218.228363 291.327991 217.081488 291.327991 215.88 C 291.327991 214.678512 290.86378 213.531637 290.017277 212.71244 L 278.493914 201.189077 C 277.674717 200.342574 276.527842 199.878363 275.326354 199.878363 C 274.124866 199.878363 272.977991 200.342574 272.131488 201.189077 L 263.857604 209.490268 L 222.242426 167.902396 L 263.857604 126.287217 L 272.131488 134.588408 C 273.032604 135.462217 274.179479 135.899122 275.326354 135.899122 C 276.473229 135.899122 277.620104 135.462217 278.493914 134.588408 L 290.017277 123.092351 C 290.86378 122.245848 291.327991 121.098973 291.327991 119.897485 C 291.327991 118.695997 290.86378 117.576429 290.017277 116.729926 L 278.493914 105.206562 C 276.746295 103.458943 273.906414 103.458943 272.131488 105.206562 L 263.857604 113.507753 L 219.074866 68.725015 C 218.228363 67.878512 217.081488 67.414301 215.88 67.414301 C 214.678512 67.414301 213.531637 67.878512 212.685134 68.725015 L 167.902396 113.507753 L 159.628512 105.206562 C 158.782009 104.387366 157.635134 103.895848 156.433646 103.895848 C 155.232158 103.895848 154.112589 104.387366 153.266086 105.206562 L 141.742723 116.729926 C 139.995104 118.477545 139.995104 121.317426 141.742723 123.092351 L 153.266086 134.588408 C 154.139896 135.462217 155.286771 135.899122 156.433646 135.899122 C 157.580521 135.899122 158.727396 135.462217 159.628512 134.588408 L 167.902396 126.287217 L 209.517574 167.902396 L 167.902396 209.490268 L 159.628512 201.189077 C 158.782009 200.342574 157.635134 199.878363 156.433646 199.878363 C 155.232158 199.878363 154.112589 200.342574 153.266086 201.189077 L 141.742723 212.685134 C 139.995104 214.46006 139.995104 217.29994 141.742723 219.04756 L 153.266086 230.570923 C 154.139896 231.444732 155.286771 231.881637 156.433646 231.881637 C 157.580521 231.881637 158.727396 231.444732 159.628512 230.570923 L 167.902396 222.269732 L 209.517574 263.857604 L 167.902396 305.472783 L 159.628512 297.171592 C 158.782009 296.325089 157.635134 295.860878 156.433646 295.860878 C 155.259464 295.860878 154.112589 296.325089 153.266086 297.171592 L 141.77003 308.667649 C 139.995104 310.442574 139.995104 313.282455 141.77003 315.030074 L 153.266086 326.553437 C 154.139896 327.427247 155.286771 327.864152 156.433646 327.864152 C 157.580521 327.864152 158.754702 327.427247 159.628512 326.553437 L 167.902396 318.252247 L 212.71244 363.034985 C 213.531637 363.881488 214.678512 364.345699 215.88 364.345699 C 217.081488 364.345699 218.228363 363.881488 219.074866 363.034985 L 263.857604 318.252247 L 272.131488 326.553437 C 273.032604 327.427247 274.179479 327.864152 275.326354 327.864152 C 276.473229 327.864152 277.620104 327.427247 278.493914 326.553437 L 290.017277 315.030074 C 290.86378 314.183571 291.327991 313.064003 291.327991 311.862515 C 291.327991 310.661027 290.86378 309.514152 290.017277 308.667649 L 278.493914 297.171592 C 276.746295 295.423973 273.906414 295.423973 272.131488 297.171592 L 263.857604 305.472783 L 222.242426 263.857604 Z M 275.326354 210.746369 L 280.459985 215.88 L 275.326354 221.013631 L 270.192723 215.88 Z M 275.326354 114.763854 L 280.459985 119.897485 L 275.326354 125.031116 L 270.192723 119.897485 Z M 156.433646 125.031116 L 151.300015 119.897485 L 156.433646 114.763854 L 161.567277 119.897485 Z M 215.88 78.282307 L 257.495179 119.897485 L 215.88 161.512664 L 174.264821 119.897485 Z M 156.433646 221.013631 L 151.300015 215.88 L 156.433646 210.746369 L 161.567277 215.88 Z M 215.88 174.264821 L 257.495179 215.88 L 215.88 257.495179 L 174.264821 215.88 Z M 156.433646 316.996146 L 151.300015 311.862515 L 156.433646 306.728884 L 161.567277 311.862515 Z M 275.326354 306.728884 L 280.459985 311.862515 L 275.326354 316.996146 L 270.192723 311.862515 Z M 215.88 353.477693 L 174.264821 311.862515 L 215.88 270.247336 L 257.495179 311.862515 Z M 215.88 353.477693 " transform="matrix(0.143052,0,0,0.143052,21.617984,21.617984)"/>
<path style="fill-rule:nonzero;fill:rgb(100%,100%,100%);fill-opacity:1;stroke-width:1;stroke-linecap:butt;stroke-linejoin:miter;stroke:rgb(100%,100%,100%);stroke-opacity:1;stroke-miterlimit:4;" d="M 261.700387 188.027321 C 260.553512 188.027321 259.406637 187.590417 258.505521 186.716607 L 242.858869 171.069955 C 242.039673 170.223452 241.548155 169.076577 241.548155 167.902396 C 241.548155 166.700908 242.039673 165.554033 242.858869 164.70753 L 258.505521 149.060878 C 259.352024 148.214375 260.498899 147.750164 261.700387 147.750164 C 262.901875 147.750164 264.021443 148.214375 264.867946 149.060878 L 280.514598 164.70753 C 282.289524 166.455149 282.289524 169.322336 280.514598 171.069955 L 264.867946 186.716607 C 263.994137 187.590417 262.847262 188.027321 261.700387 188.027321 Z M 252.416161 167.902396 L 261.700387 177.159315 L 270.984613 167.902396 L 261.700387 158.61817 Z M 252.416161 167.902396 " transform="matrix(0.143052,0,0,0.143052,21.617984,21.617984)"/>
<path style="fill-rule:nonzero;fill:rgb(100%,100%,100%);fill-opacity:1;stroke-width:1;stroke-linecap:butt;stroke-linejoin:miter;stroke:rgb(100%,100%,100%);stroke-opacity:1;stroke-miterlimit:4;" d="M 261.700387 284.009836 C 260.553512 284.009836 259.406637 283.572932 258.505521 282.699122 L 242.858869 267.05247 C 242.039673 266.205967 241.548155 265.059092 241.548155 263.857604 C 241.548155 262.683423 242.039673 261.536548 242.858869 260.690045 L 258.505521 245.043393 C 259.352024 244.19689 260.498899 243.732679 261.700387 243.732679 C 262.901875 243.732679 264.021443 244.19689 264.867946 245.043393 L 280.514598 260.690045 C 282.289524 262.437664 282.289524 265.304851 280.514598 267.05247 L 264.867946 282.699122 C 263.994137 283.572932 262.847262 284.009836 261.700387 284.009836 Z M 252.416161 263.857604 L 261.700387 273.14183 L 270.984613 263.857604 L 261.700387 254.600685 Z M 252.416161 263.857604 " transform="matrix(0.143052,0,0,0.143052,21.617984,21.617984)"/>
<path style="fill-rule:nonzero;fill:rgb(100%,100%,100%);fill-opacity:1;stroke-width:1;stroke-linecap:butt;stroke-linejoin:miter;stroke:rgb(100%,100%,100%);stroke-opacity:1;stroke-miterlimit:4;" d="M 301.868318 47.862812 L 129.891682 47.862812 C 127.406786 47.862812 125.386101 49.85619 125.386101 52.341086 L 125.386101 379.418914 C 125.386101 381.90381 127.406786 383.897187 129.891682 383.897187 L 301.868318 383.897187 C 304.353214 383.897187 306.373899 381.90381 306.373899 379.418914 L 306.373899 52.341086 C 306.373899 49.85619 304.353214 47.862812 301.868318 47.862812 Z M 270.984613 67.987738 L 261.700387 77.271964 L 252.416161 67.987738 L 261.700387 58.703512 Z M 179.343839 67.987738 L 170.059613 77.271964 L 160.775387 67.987738 L 170.059613 58.703512 Z M 170.059613 373.056488 L 160.775387 363.772262 L 170.059613 354.488036 L 179.343839 363.772262 Z M 261.700387 373.056488 L 252.416161 363.772262 L 261.700387 354.488036 L 270.984613 363.772262 Z M 297.362738 374.913333 L 272.568393 374.913333 L 280.514598 366.939821 C 282.289524 365.192202 282.289524 362.352321 280.514598 360.577396 L 264.867946 344.930744 C 264.021443 344.111548 262.901875 343.62003 261.700387 343.62003 C 260.498899 343.62003 259.352024 344.111548 258.505521 344.930744 L 242.858869 360.577396 C 242.012366 361.423899 241.548155 362.570774 241.548155 363.772262 C 241.548155 364.97375 242.012366 366.093318 242.858869 366.939821 L 250.832381 374.913333 L 180.927619 374.913333 L 188.901131 366.939821 C 189.747634 366.093318 190.211845 364.97375 190.211845 363.772262 C 190.211845 362.570774 189.747634 361.423899 188.901131 360.577396 L 173.254479 344.930744 C 172.407976 344.084241 171.261101 343.62003 170.059613 343.62003 C 168.858125 343.62003 167.738557 344.111548 166.892054 344.930744 L 151.245402 360.577396 C 149.470476 362.352321 149.470476 365.192202 151.245402 366.939821 L 159.191607 374.913333 L 134.397262 374.913333 L 134.397262 56.846667 L 159.191607 56.846667 L 151.245402 64.820179 C 150.398899 65.666682 149.907381 66.813557 149.907381 67.987738 C 149.907381 69.189226 150.398899 70.336101 151.245402 71.182604 L 166.892054 86.829256 C 167.765863 87.703065 168.912738 88.13997 170.059613 88.13997 C 171.206488 88.13997 172.353363 87.703065 173.254479 86.829256 L 188.901131 71.182604 C 189.747634 70.336101 190.211845 69.189226 190.211845 67.987738 C 190.211845 66.813557 189.747634 65.666682 188.901131 64.820179 L 180.927619 56.846667 L 250.832381 56.846667 L 242.858869 64.820179 C 242.039673 65.666682 241.548155 66.813557 241.548155 67.987738 C 241.548155 69.189226 242.039673 70.336101 242.858869 71.182604 L 258.505521 86.829256 C 259.406637 87.703065 260.553512 88.13997 261.700387 88.13997 C 262.847262 88.13997 263.994137 87.703065 264.867946 86.829256 L 280.514598 71.182604 C 281.361101 70.336101 281.852619 69.189226 281.852619 67.987738 C 281.852619 66.813557 281.361101 65.666682 280.514598 64.820179 L 272.568393 56.846667 L 297.362738 56.846667 Z M 297.362738 374.913333 " transform="matrix(0.143052,0,0,0.143052,21.617984,21.617984)"/>
<path style="fill-rule:nonzero;fill:rgb(100%,100%,100%);fill-opacity:1;stroke-width:1;stroke-linecap:butt;stroke-linejoin:miter;stroke:rgb(100%,100%,100%);stroke-opacity:1;stroke-miterlimit:4;" d="M 336.247262 -0.00556548 C 333.762366 -0.00556548 331.768988 2.015119 331.768988 4.500015 L 331.768988 11.517798 L 325.706935 11.517798 L 325.706935 4.500015 C 325.706935 2.015119 323.68625 -0.00556548 321.201354 -0.00556548 C 318.716458 -0.00556548 316.695774 2.015119 316.695774 4.500015 L 316.695774 11.517798 L 310.661027 11.517798 L 310.661027 4.500015 C 310.661027 2.015119 308.640342 -0.00556548 306.155446 -0.00556548 C 303.670551 -0.00556548 301.649866 2.015119 301.649866 4.500015 L 301.649866 11.517798 L 295.615119 11.517798 L 295.615119 4.500015 C 295.615119 2.015119 293.594435 -0.00556548 291.109539 -0.00556548 C 288.624643 -0.00556548 286.603958 2.015119 286.603958 4.500015 L 286.603958 11.517798 L 280.569211 11.517798 L 280.569211 4.500015 C 280.569211 2.015119 278.548527 -0.00556548 276.063631 -0.00556548 C 273.578735 -0.00556548 271.558051 2.015119 271.558051 4.500015 L 271.558051 11.517798 L 265.523304 11.517798 L 265.523304 4.500015 C 265.523304 2.015119 263.502619 -0.00556548 261.017723 -0.00556548 C 258.532827 -0.00556548 256.512143 2.015119 256.512143 4.500015 L 256.512143 11.517798 L 250.477396 11.517798 L 250.477396 4.500015 C 250.477396 2.015119 248.456711 -0.00556548 245.971815 -0.00556548 C 243.48692 -0.00556548 241.466235 2.015119 241.466235 4.500015 L 241.466235 11.517798 L 235.431488 11.517798 L 235.431488 4.500015 C 235.431488 2.015119 233.410804 -0.00556548 230.925908 -0.00556548 C 228.441012 -0.00556548 226.420327 2.015119 226.420327 4.500015 L 226.420327 11.517798 L 220.38558 11.517798 L 220.38558 4.500015 C 220.38558 2.015119 218.364896 -0.00556548 215.88 -0.00556548 C 213.395104 -0.00556548 211.37442 2.015119 211.37442 4.500015 L 211.37442 11.517798 L 205.339673 11.517798 L 205.339673 4.500015 C 205.339673 2.015119 203.318988 -0.00556548 200.834092 -0.00556548 C 198.349196 -0.00556548 196.328512 2.015119 196.328512 4.500015 L 196.328512 11.517798 L 190.293765 11.517798 L 190.293765 4.500015 C 190.293765 2.015119 188.27308 -0.00556548 185.788185 -0.00556548 C 183.303289 -0.00556548 181.282604 2.015119 181.282604 4.500015 L 181.282604 11.517798 L 175.247857 11.517798 L 175.247857 4.500015 C 175.247857 2.015119 173.227173 -0.00556548 170.742277 -0.00556548 C 168.257381 -0.00556548 166.236696 2.015119 166.236696 4.500015 L 166.236696 11.517798 L 160.201949 11.517798 L 160.201949 4.500015 C 160.201949 2.015119 158.181265 -0.00556548 155.696369 -0.00556548 C 153.211473 -0.00556548 151.190789 2.015119 151.190789 4.500015 L 151.190789 11.517798 L 145.156042 11.517798 L 145.156042 4.500015 C 145.156042 2.015119 143.135357 -0.00556548 140.650461 -0.00556548 C 138.165565 -0.00556548 136.144881 2.015119 136.144881 4.500015 L 136.144881 11.517798 L 130.110134 11.517798 L 130.110134 4.500015 C 130.110134 2.015119 128.089449 -0.00556548 125.604554 -0.00556548 C 123.119658 -0.00556548 121.098973 2.015119 121.098973 4.500015 L 121.098973 11.517798 L 115.064226 11.517798 L 115.064226 4.500015 C 115.064226 2.015119 113.043542 -0.00556548 110.558646 -0.00556548 C 108.07375 -0.00556548 106.053065 2.015119 106.053065 4.500015 L 106.053065 11.517798 L 100.018318 11.517798 L 100.018318 4.500015 C 100.018318 2.015119 97.997634 -0.00556548 95.512738 -0.00556548 C 93.027842 -0.00556548 91.007158 2.015119 91.007158 4.500015 L 91.007158 427.259985 C 91.007158 429.744881 93.027842 431.765565 95.512738 431.765565 C 97.997634 431.765565 100.018318 429.744881 100.018318 427.259985 L 100.018318 420.242202 L 106.053065 420.242202 L 106.053065 427.259985 C 106.053065 429.744881 108.07375 431.765565 110.558646 431.765565 C 113.043542 431.765565 115.064226 429.744881 115.064226 427.259985 L 115.064226 420.242202 L 121.098973 420.242202 L 121.098973 427.259985 C 121.098973 429.744881 123.119658 431.765565 125.604554 431.765565 C 128.089449 431.765565 130.110134 429.744881 130.110134 427.259985 L 130.110134 420.242202 L 136.144881 420.242202 L 136.144881 427.259985 C 136.144881 429.744881 138.165565 431.765565 140.650461 431.765565 C 143.135357 431.765565 145.156042 429.744881 145.156042 427.259985 L 145.156042 420.242202 L 151.190789 420.242202 L 151.190789 427.259985 C 151.190789 429.744881 153.211473 431.765565 155.696369 431.765565 C 158.181265 431.765565 160.201949 429.744881 160.201949 427.259985 L 160.201949 420.242202 L 166.236696 420.242202 L 166.236696 427.259985 C 166.236696 429.744881 168.257381 431.765565 170.742277 431.765565 C 173.227173 431.765565 175.247857 429.744881 175.247857 427.259985 L 175.247857 420.242202 L 181.282604 420.242202 L 181.282604 427.259985 C 181.282604 429.744881 183.303289 431.765565 185.788185 431.765565 C 188.27308 431.765565 190.293765 429.744881 190.293765 427.259985 L 190.293765 420.242202 L 196.328512 420.242202 L 196.328512 427.259985 C 196.328512 429.744881 198.349196 431.765565 200.834092 431.765565 C 203.318988 431.765565 205.339673 429.744881 205.339673 427.259985 L 205.339673 420.242202 L 211.37442 420.242202 L 211.37442 427.259985 C 211.37442 429.744881 213.395104 431.765565 215.88 431.765565 C 218.364896 431.765565 220.38558 429.744881 220.38558 427.259985 L 220.38558 420.242202 L 226.420327 420.242202 L 226.420327 427.259985 C 226.420327 429.744881 228.441012 431.765565 230.925908 431.765565 C 233.410804 431.765565 235.431488 429.744881 235.431488 427.259985 L 235.431488 420.242202 L 241.466235 420.242202 L 241.466235 427.259985 C 241.466235 429.744881 243.48692 431.765565 245.971815 431.765565 C 248.456711 431.765565 250.477396 429.744881 250.477396 427.259985 L 250.477396 420.242202 L 256.512143 420.242202 L 256.512143 427.259985 C 256.512143 429.744881 258.532827 431.765565 261.017723 431.765565 C 263.502619 431.765565 265.523304 429.744881 265.523304 427.259985 L 265.523304 420.242202 L 271.558051 420.242202 L 271.558051 427.259985 C 271.558051 429.744881 273.578735 431.765565 276.063631 431.765565 C 278.548527 431.765565 280.569211 429.744881 280.569211 427.259985 L 280.569211 420.242202 L 286.603958 420.242202 L 286.603958 427.259985 C 286.603958 429.744881 288.624643 431.765565 291.109539 431.765565 C 293.594435 431.765565 295.615119 429.744881 295.615119 427.259985 L 295.615119 420.242202 L 301.677173 420.242202 L 301.677173 427.259985 C 301.677173 429.744881 303.670551 431.765565 306.155446 431.765565 C 308.640342 431.765565 310.661027 429.744881 310.661027 427.259985 L 310.661027 420.242202 L 316.72308 420.242202 L 316.72308 427.259985 C 316.72308 429.744881 318.716458 431.765565 321.201354 431.765565 C 323.68625 431.765565 325.706935 429.744881 325.706935 427.259985 L 325.706935 420.242202 L 331.768988 420.242202 L 331.768988 427.259985 C 331.768988 429.744881 333.762366 431.765565 336.247262 431.765565 C 338.732158 431.765565 340.752842 429.744881 340.752842 427.259985 L 340.752842 4.500015 C 340.752842 2.015119 338.732158 -0.00556548 336.247262 -0.00556548 Z M 100.018318 20.501652 L 331.768988 20.501652 L 331.768988 411.258348 L 100.018318 411.258348 Z M 100.018318 20.501652 " transform="matrix(0.143052,0,0,0.143052,21.617984,21.617984)"/>
</g>
</svg>
