<!DOCTYPE svg PUBLIC "-//W3C//DTD SVG 1.1//EN" "http://www.w3.org/Graphics/SVG/1.1/DTD/svg11.dtd">
<!-- Uploaded to: SVG Repo, www.svgrepo.com, Transformed by: SVG Repo Mixer Tools -->
<svg fill="#ffffff" width="800px" height="800px" viewBox="-179.2 -179.2 870.40 870.40" enable-background="new 0 0 512 512" id="Pyjamas" version="1.1" xml:space="preserve" xmlns="http://www.w3.org/2000/svg" xmlns:xlink="http://www.w3.org/1999/xlink" stroke="#ffffff">
<g id="SVGRepo_bgCarrier" stroke-width="0">
<rect x="-179.2" y="-179.2" width="870.40" height="870.40" rx="435.2" fill="#3FC5F0" strokewidth="0"/>
</g>
<g id="SVGRepo_tracerCarrier" stroke-linecap="round" stroke-linejoin="round"/>
<g id="SVGRepo_iconCarrier"> <g> <path d="M389.215,428.834c-2.763,0-5,2.238-5,5s2.237,5.01,5,5.01c2.762,0,4.999-2.248,4.999-5.01S391.977,428.834,389.215,428.834 z"/> <path d="M255.01,340.407c-2.762,0-5,2.247-5,5.01c0,2.762,2.238,4.999,5,4.999c2.763,0,5-2.237,5-4.999 C260.01,342.654,257.772,340.407,255.01,340.407z"/> <path d="M255.01,261.989c-2.762,0-5,2.237-5,5c0,2.772,2.238,5.009,5,5.009c2.763,0,5-2.236,5-5.009 C260.01,264.227,257.772,261.989,255.01,261.989z"/> <path d="M122.775,438.844c2.763,0,5-2.248,5-5.01s-2.237-5-5-5c-2.762,0-4.999,2.238-4.999,5S120.014,438.844,122.775,438.844z"/> <circle cx="255.01" cy="423.834" r="5"/> <path d="M249.743,188.571c0,2.762,2.237,5.009,4.999,5.009c2.763,0,5.01-2.248,5.01-5.009c0-2.762-2.247-5-5.01-5 C251.98,183.571,249.743,185.809,249.743,188.571z"/> <path d="M121.922,151.951c0.26,0.059,0.518,0.087,0.772,0.087c1.573,0,2.994-1.083,3.36-2.682l0.308-1.338 c0.429-1.856-0.727-3.709-2.583-4.139c-1.852-0.43-3.709,0.726-4.14,2.583l-0.313,1.356 C118.902,149.676,120.065,151.526,121.922,151.951z"/> <path d="M431.196,417.591C416.85,216.058,379.092,95.356,378.712,94.16c-0.048-0.15-0.105-0.297-0.173-0.439 c-12.338-25.915-56.054-43.076-61.983-45.304l-6.409-5.516l-20.008-17.216c-0.035-0.03-0.078-0.045-0.113-0.074 c-0.168-0.134-0.348-0.25-0.539-0.352c-0.059-0.03-0.112-0.066-0.172-0.093c-0.244-0.111-0.501-0.198-0.771-0.25 c-0.049-0.009-0.098-0.007-0.146-0.015c-0.168-0.025-0.335-0.051-0.51-0.051h-63.775c-0.175,0-0.342,0.026-0.51,0.051 c-0.048,0.007-0.097,0.005-0.146,0.015c-0.271,0.052-0.527,0.139-0.771,0.25c-0.061,0.027-0.115,0.063-0.174,0.094 c-0.191,0.101-0.369,0.217-0.537,0.351c-0.035,0.028-0.078,0.044-0.113,0.074l-20.008,17.216l-6.409,5.516 c-5.935,2.23-49.646,19.391-61.983,45.304c-0.067,0.142-0.125,0.289-0.173,0.439c-0.035,0.111-3.604,11.404-8.864,32.396 c-0.463,1.848,0.66,3.722,2.508,4.185c0.282,0.07,0.563,0.104,0.841,0.104c1.546,0,2.951-1.045,3.345-2.612 c4.795-19.14,8.154-30.084,8.677-31.759c11.911-24.561,58.144-41.625,58.609-41.795c0.161-0.059,0.313-0.137,0.464-0.218 c-4.292,28.704,1.575,58.182,1.856,59.559c0.248,1.218,1.132,2.208,2.313,2.592c0.35,0.113,0.71,0.169,1.067,0.169 c0.849,0,1.683-0.314,2.329-0.904c2.598-2.378,5.518-4.599,8.695-6.637c0.711,1.174,1.3,2.153,1.611,2.686 c15.655,26.367,23.93,56.869,23.93,88.209v279.765c-65.562-2.942-89.447-24.487-92.873-27.955 c-1.897-7.33-3.504-30.728-0.982-99.203L159.8,129.914l0.021-0.315c0.121-1.901-1.322-3.541-3.224-3.663 c-1.892-0.11-3.542,1.322-3.663,3.224l-0.017,0.278c-0.001,0.007-0.003,0.04-0.004,0.055c-0.001,0.001-0.001,0.002-0.001,0.003 l-0.001,0.014c-0.229,3.069-9.481,128.244-12.989,222.883l-3.612,61.993H87.958c7.976-109.288,22.724-193.677,33.757-245.422 c0.397-1.863-0.791-3.696-2.654-4.093c-1.869-0.399-3.696,0.791-4.093,2.655c-11.204,52.543-26.228,138.579-34.164,250.066 c-0.767,10.785-1.464,21.741-2.072,32.561c-0.053,0.938,0.28,1.857,0.92,2.545c0.64,0.688,1.533,1.085,2.473,1.099l43.473,0.653 c0.081,0.002,0.16,0.002,0.241,0.002c6.051,0,11.33-3.369,14.032-8.386c0.411,3.759,0.923,6.64,1.536,8.633 c0.135,0.437,0.354,0.843,0.646,1.193c0.968,1.16,24.564,28.442,101.912,31.057c0.019,0.002,0.036,0.002,0.055,0.003 c0.034,0.002,0.066,0.011,0.101,0.011h0.082c0.778,0.03,1.558,0.042,2.339,0.06c0.452,0.012,0.896,0.025,1.351,0.035l0.048,0.002 c0.018,0,0.035,0,0.052,0.001c1.421,0.04,2.851,0.061,4.276,0.07c0.014,0,0.027,0,0.042,0c0.56,0.01,1.12,0.01,1.68,0.01 c0.001,0,0.002,0,0.003,0c0.664,0.01,1.336,0.011,2.008,0.011c0.986,0,1.96-0.001,2.945-0.011c0.001,0,0.002,0,0.004,0 c0.016,0,0.031,0,0.047-0.001l2.112-0.028c1.688-0.021,3.348-0.06,4.984-0.101c0.001,0,0.001,0,0.003,0c0.004,0,0.009,0,0.014,0 l2.014-0.06c0.001,0,0.002-0.001,0.003-0.001c0.004,0,0.007,0,0.011,0c14.63-0.498,28.369-1.934,40.834-4.268 c1.873-0.35,3.107-2.152,2.757-4.025c-0.352-1.873-2.146-3.11-4.026-2.756c-11.107,2.078-23.286,3.416-36.232,4.002V200.134 c0-31.339,8.275-61.841,23.933-88.214c0.302-0.512,0.872-1.464,1.564-2.609c3.106,1.996,5.995,4.19,8.605,6.57 c0.646,0.588,1.478,0.9,2.325,0.9c0.357,0,0.719-0.056,1.07-0.17c1.18-0.385,2.062-1.375,2.31-2.591 c0.281-1.377,6.148-30.855,1.856-59.559c0.15,0.082,0.303,0.159,0.464,0.218c0.467,0.169,46.684,17.206,58.609,41.794 c1.832,5.908,37.653,123.542,51.837,317.913h-48.354l-3.611-61.976c-3.525-95.158-12.863-221.214-12.993-222.953 c-0.014-0.25-0.026-0.398-0.026-0.398c-0.189-1.885-1.852-3.265-3.749-3.095c-1.886,0.173-3.28,1.832-3.123,3.719l12.999,223.063 c2.521,68.484,0.916,91.876-0.983,99.201c-1.452,1.484-6.484,6.163-16.615,11.252c-1.703,0.855-2.39,2.928-1.534,4.631 c0.605,1.205,1.821,1.902,3.085,1.902c0.521,0,1.049-0.118,1.546-0.368c13.667-6.864,19.041-13.206,19.263-13.474 c0.293-0.351,0.513-0.756,0.647-1.192c0.613-1.993,1.124-4.873,1.536-8.632c2.702,5.016,7.98,8.385,14.033,8.385 c0.08,0,0.162,0,0.241-0.002l43.471-0.653c0.94-0.014,1.833-0.41,2.474-1.099c0.64-0.688,0.973-1.606,0.92-2.545 C432.66,439.333,431.963,428.377,431.196,417.591z M134.874,439.025c-0.284,4.807-4.242,8.525-9.038,8.525 c-0.045,0-0.092,0-0.138,0l-39.872-0.6c0.495-8.545,1.05-17.143,1.643-25.666h48.438L134.874,439.025z M283.785,31.75l-3.57,20.483 h-48.429l-3.571-20.483H283.785z M279.012,59.133l-6.286,36.063c-1.263,2.021-2.533,4.065-3.399,5.491 c-5.141,8.375-9.578,17.154-13.256,26.189c-3.702-9.064-8.145-17.849-13.275-26.22c-0.523-0.833-1.172-1.88-1.871-3.009 c-0.547-0.885-1.125-1.816-1.698-2.736l-6.237-35.778H279.012z M214.555,101.503c-0.001,0-0.002,0-0.002,0.001 c-2.852,1.648-5.543,3.434-8.046,5.337c-1.682-11.261-4.472-36.946,0.698-59.441l14.551-12.522l3.748,21.496 c0,0.002,0,0.005,0.001,0.007l6.548,37.557c-0.131,0.039-0.262,0.078-0.4,0.12c-0.001,0-0.002,0-0.002,0l-0.016,0.005 c-0.025,0.008-0.048,0.014-0.073,0.022c-0.114,0.034-0.23,0.069-0.349,0.11c-1.789,0.546-3.83,1.271-5.916,2.102 c-0.334,0.134-0.676,0.276-1.105,0.455C220.826,98.153,217.584,99.752,214.555,101.503z M262.559,480.18 c-0.517,0.01-1.017,0.025-1.54,0.031l-2.104,0.029c-0.957,0.01-1.914,0.01-2.881,0.01c-0.658,0.006-1.333,0-2.044-0.01 c-0.543,0-1.077,0-1.637-0.01c-1.408-0.01-2.786-0.029-4.199-0.069l-0.103-0.002c-0.161-0.004-0.319-0.009-0.48-0.013V200.134 c0-32.579-8.609-64.299-24.886-91.713c-0.304-0.52-0.878-1.474-1.58-2.634c1.86-0.958,3.802-1.859,5.827-2.702 c0.312-0.13,0.623-0.26,0.926-0.381c0,0,0,0,0,0c2.446-0.973,4.311-1.587,5.443-1.931c0,0,0,0,0.001,0c0,0,0.001,0,0.001,0 l0.376-0.119l0.007-0.002c0.295-0.091,0.572-0.173,0.83-0.248c0.183,0.296,0.364,0.589,0.543,0.877 c0.706,1.142,1.363,2.202,1.873,3.014c6.453,10.528,11.793,21.768,15.872,33.407c0.009,0.024,0.011,0.049,0.019,0.073 c6.461,18.485,9.736,37.851,9.736,57.559V480.18z M289.465,108.402c-10.859,18.291-18.305,38.486-22.062,59.573 c-1.615-10.644-4.178-21.12-7.674-31.34c3.982-11.214,9.187-22.088,15.485-32.354c0.634-1.042,1.479-2.408,2.377-3.851 c1.84,0.542,3.689,1.169,5.461,1.848l0.031,0.012v0l0.027,0.01l0.734,0.287c0.095,0.037,0.188,0.072,0.282,0.11 c0.001,0,0.001,0,0.002,0.001c0.188,0.079,0.374,0.156,0.563,0.229c0.415,0.179,0.828,0.354,1.19,0.502 c0.05,0.021,0.095,0.04,0.145,0.061l0.869,0.384c0.266,0.115,0.531,0.24,0.801,0.366l1.826,0.869 c0.278,0.129,0.555,0.269,0.822,0.406c0.216,0.111,0.433,0.224,0.647,0.336C290.314,106.976,289.764,107.898,289.465,108.402z M305.49,106.843c-2.477-1.886-5.121-3.628-7.883-5.225c-0.024-0.015-0.044-0.035-0.068-0.049l-0.989-0.564 c-0.362-0.208-0.726-0.406-1.04-0.573c-0.009-0.005-0.018-0.009-0.026-0.014c-0.003-0.002-0.007-0.003-0.009-0.005 c-0.666-0.353-1.321-0.696-1.969-1.03c-0.346-0.178-0.701-0.355-1.014-0.501l-0.926-0.448c-0.232-0.112-0.463-0.22-0.692-0.326 l-0.257-0.119c-0.328-0.153-0.656-0.306-0.945-0.431l-0.907-0.401c-0.005-0.002-0.007-0.004-0.011-0.006 c-0.5-0.214-0.979-0.418-1.448-0.612c-0.005-0.002-0.01-0.002-0.015-0.004c-0.036-0.015-0.072-0.031-0.108-0.044 c-0.125-0.046-0.255-0.102-0.458-0.186c-0.003-0.001-0.005-0.003-0.007-0.004c-0.286-0.116-0.573-0.227-0.856-0.336l-0.217-0.083 l-0.076-0.03c-1.854-0.71-3.74-1.342-5.621-1.908l10.297-59.066L304.795,47.4C309.957,69.868,307.17,95.576,305.49,106.843z M386.303,447.551c-4.832,0.055-8.889-3.673-9.177-8.523l-1.034-17.742h48.439c0.592,8.523,1.147,17.12,1.643,25.666 L386.303,447.551z"/> <path d="M328.014,470.941l-0.888,0.271c-1.824,0.552-2.854,2.478-2.303,4.302c0.451,1.49,1.819,2.451,3.301,2.451 c0.33,0,0.667-0.048,1.001-0.148l0.926-0.283c1.82-0.563,2.84-2.494,2.277-4.314C331.767,471.398,329.836,470.377,328.014,470.941z "/> </g> </g>
</svg>