<!DOCTYPE svg PUBLIC "-//W3C//DTD SVG 1.1//EN" "http://www.w3.org/Graphics/SVG/1.1/DTD/svg11.dtd">
<!-- Uploaded to: SVG Repo, www.svgrepo.com, Transformed by: SVG Repo Mixer Tools -->
<svg width="800px" height="800px" viewBox="-150.82 -150.82 732.54 732.54" xmlns="http://www.w3.org/2000/svg" fill="#3FC5F0">
<g id="SVGRepo_bgCarrier" stroke-width="0">
<rect x="-150.82" y="-150.82" width="732.54" height="732.54" rx="366.27" fill="#7ed0ec" strokewidth="0"/>
</g>
<g id="SVGRepo_tracerCarrier" stroke-linecap="round" stroke-linejoin="round"/>
<g id="SVGRepo_iconCarrier">
<defs>
<style>.a{fill:#ffffff;}.b{fill:#ffffff;}.c{fill:#ffffff;}.d{fill:#211715;}.e{fill:#ffffff;}.f{fill:#ffffff;}.g{fill:none;}.h{fill:#ffffff;}</style>
</defs>
<path class="a" d="M363.532,1.546c.007,6.412.47,12.812.475,19.226a1.6,1.6,0,0,0,3.2,0c0-6.414-.468-12.814-.475-19.226a1.6,1.6,0,0,0-3.2,0Z"/>
<path class="a" d="M365.727,19.174c-2.447-.039-4.724,1.838-6.434,3.378a34.618,34.618,0,0,0-6.466,8.018,25.032,25.032,0,0,0-3.664,10.379c-.15,1.648-.253,3.888,1,5.147a6.412,6.412,0,0,0,3.342,1.406,56.78,56.78,0,0,0,10.422.721c3.216.021,6.443.026,9.653-.207,2.492-.181,6.886-.175,8.15-2.853.74-1.567.48-3.761.248-5.426a22.457,22.457,0,0,0-1.474-5.378A33.276,33.276,0,0,0,373.76,23.9c-2.1-2.185-4.86-4.555-8.033-4.727-2.058-.112-2.052,3.088,0,3.2a4.325,4.325,0,0,1,.979.225,7.444,7.444,0,0,1,1.267.631,15.886,15.886,0,0,1,2.895,2.3,29.7,29.7,0,0,1,5.5,7.463,20.44,20.44,0,0,1,2.592,8.652,5.939,5.939,0,0,1-.095,2.081c-.08.2-.176.217-.608.361a16.455,16.455,0,0,1-3.72.651,102.647,102.647,0,0,1-17.116.054,22.115,22.115,0,0,1-3.9-.563,2.811,2.811,0,0,1-1.072-.39c-.009-.008-.026.065-.073-.234a8.472,8.472,0,0,1-.07-1.181,18.269,18.269,0,0,1,2.318-8.5,32.631,32.631,0,0,1,5.921-8.15,18.07,18.07,0,0,1,3.1-2.573,10.1,10.1,0,0,1,1.161-.63,4.158,4.158,0,0,1,.61-.183c.192-.041-.047-.007-.072,0a2.061,2.061,0,0,1,.385-.012C367.787,22.406,367.787,19.206,365.727,19.174Z"/>
<path class="a" d="M85.921,1.546c.006,6.412.47,12.812.474,19.226a1.6,1.6,0,0,0,3.2,0c0-6.414-.468-12.814-.474-19.226a1.6,1.6,0,0,0-3.2,0Z"/>
<path class="a" d="M88.115,19.174c-2.447-.039-4.723,1.838-6.433,3.378a34.648,34.648,0,0,0-6.467,8.018,25.03,25.03,0,0,0-3.663,10.379c-.15,1.648-.254,3.888,1,5.147A6.412,6.412,0,0,0,75.9,47.5a56.776,56.776,0,0,0,10.421.721c3.217.021,6.444.026,9.653-.207,2.493-.181,6.887-.175,8.151-2.853.74-1.567.479-3.761.248-5.426a22.413,22.413,0,0,0-1.475-5.378A33.255,33.255,0,0,0,96.149,23.9c-2.1-2.185-4.861-4.555-8.034-4.727-2.057-.112-2.051,3.088,0,3.2a4.331,4.331,0,0,1,.98.225,7.444,7.444,0,0,1,1.267.631,15.886,15.886,0,0,1,2.9,2.3,29.724,29.724,0,0,1,5.5,7.463,20.438,20.438,0,0,1,2.591,8.652,5.892,5.892,0,0,1-.095,2.081c-.08.2-.176.217-.607.361a16.465,16.465,0,0,1-3.72.651,102.658,102.658,0,0,1-17.117.054,22.1,22.1,0,0,1-3.9-.563,2.8,2.8,0,0,1-1.072-.39c-.009-.008-.026.065-.073-.234a8.628,8.628,0,0,1-.071-1.181,18.282,18.282,0,0,1,2.319-8.5,32.631,32.631,0,0,1,5.921-8.15,18.031,18.031,0,0,1,3.1-2.573,10.016,10.016,0,0,1,1.161-.63,4.182,4.182,0,0,1,.609-.183c.192-.041-.046-.007-.072,0a2.064,2.064,0,0,1,.385-.012C90.175,22.406,90.176,19.206,88.115,19.174Z"/>
<path class="a" d="M383.451,381.417q18,0,36,.007a1.6,1.6,0,0,0,0-3.2q-18,0-36-.007a1.6,1.6,0,0,0,0,3.2Z"/>
<path class="a" d="M123.005,381.394h16.547l37.385,0,51.177,0,58.274,0,58.772.006h6.957a1.6,1.6,0,0,0,0-3.2l-58.334-.006-58.872,0-52.4,0-39.328,0-19.5,0h-.685a1.6,1.6,0,0,0,0,3.2Z"/>
<path class="a" d="M37.341,381.421l28,0a1.6,1.6,0,0,0,0-3.2l-28,0a1.6,1.6,0,0,0,0,3.2Z"/>
<path class="a" d="M156.636,76.838q26.355,0,52.711.01l57.012.017q13.158,0,26.318,0a1.6,1.6,0,0,0,0-3.2q-25.178,0-50.355-.01-28.835-.007-57.67-.016-14.008,0-28.016,0a1.6,1.6,0,0,0,0,3.2Z"/>
<path class="a" d="M147.9,73.581c-3.453,0-6.907.04-10.36.06a1.6,1.6,0,0,0,0,3.2c3.453-.02,6.907-.059,10.36-.06a1.6,1.6,0,0,0,0-3.2Z"/>
<path class="a" d="M301.007,76.891q6.935,0,13.87-.02a1.6,1.6,0,0,0,0-3.2q-6.935.015-13.87.02a1.6,1.6,0,0,0,0,3.2Z"/>
<path class="a" d="M137.673,46.616l28.72,0,37.94.007,41.012.009,37.935.007q14.355,0,28.709,0h2.573a1.6,1.6,0,0,0,0-3.2q-13.582,0-27.164,0l-37.139-.007-40.966-.009-38.644-.007-30.174,0h-2.8a1.6,1.6,0,0,0,0,3.2Z"/>
<path class="a" d="M244.634,165.637q-17.368.006-34.738.035c-1.4,0-2.826.068-4.229,0-2.059-.1-2.054,3.1,0,3.2,3.791.18,7.635,0,11.429-.008l20.186-.022q3.677,0,7.352-.006a1.6,1.6,0,0,0,0-3.2Z"/>
<path class="a" d="M284.339,165.637c-9.555,0-19.11.035-28.665.036a1.6,1.6,0,0,0,0,3.2c9.555,0,19.11-.036,28.665-.036a1.6,1.6,0,0,0,0-3.2Z"/>
<path class="a" d="M195.6,165.346c-8.912,0-17.825.185-26.736.285-1.507.017-3.014.041-4.522.042a1.6,1.6,0,0,0,0,3.2c8.489-.007,16.98-.2,25.468-.285,1.93-.019,3.86-.041,5.79-.042a1.6,1.6,0,0,0,0-3.2Z"/>
<path class="a" d="M155.669,143.783q7.338,0,14.677-.022l26.607-.053q16.269-.033,32.539-.064,16.485-.032,32.971-.056,13.71-.02,27.42-.027h2.734a1.6,1.6,0,0,0,0-3.2q-13.161,0-26.321.022-16.3.022-32.6.053-16.445.03-32.889.064l-27.683.056q-8.239.015-16.478.027h-.978a1.6,1.6,0,0,0,0,3.2Z"/>
<path class="a" d="M155.669,152.376H292.576a1.6,1.6,0,0,0,0-3.2H155.669a1.6,1.6,0,0,0,0,3.2Z"/>
<path class="a" d="M170.221,140.214c-.821-1.969-.328-4.851,2.123-5.043,1.29-.1,2.59-.132,3.882-.179,3.727-.135,7.455-.207,11.184-.263,7.8-.116,15.61-.175,23.412-.046,1.334.022,2.689,0,4.019.107,1.942.159,4.706,2.614,3.178,4.679-1.226,1.656,1.55,3.254,2.763,1.615,1.638-2.213.606-5.56-1.142-7.39-1.578-1.651-3.638-2.072-5.824-2.142-3.661-.118-7.327-.126-10.989-.13-9.021-.011-18.053.046-27.068.387-1.823.069-4.04-.1-5.731.633-3.069,1.337-4.115,5.694-2.893,8.622a1.657,1.657,0,0,0,1.969,1.118,1.608,1.608,0,0,0,1.117-1.968Z"/>
<path class="a" d="M230.666,139.806c-.822-1.969-.329-4.851,2.122-5.043,1.291-.1,2.59-.132,3.883-.179,3.726-.134,7.455-.207,11.183-.262,7.8-.117,15.61-.176,23.412-.047,1.334.022,2.689,0,4.02.107,1.942.159,4.7,2.615,3.178,4.679-1.227,1.657,1.55,3.254,2.763,1.615,1.637-2.213.606-5.56-1.142-7.389-1.579-1.652-3.639-2.072-5.825-2.143-3.661-.118-7.326-.125-10.989-.13-9.02-.011-18.052.046-27.067.388-1.823.069-4.04-.1-5.731.632-3.069,1.337-4.115,5.694-2.893,8.623a1.655,1.655,0,0,0,1.968,1.117,1.609,1.609,0,0,0,1.118-1.968Z"/>
<path class="a" d="M170.221,132.056c-.821-1.969-.328-4.851,2.123-5.043,1.29-.1,2.59-.132,3.882-.179,3.727-.135,7.455-.207,11.184-.263,7.8-.116,15.61-.175,23.412-.046,1.334.022,2.689,0,4.019.107,1.942.159,4.706,2.614,3.178,4.679-1.226,1.656,1.55,3.254,2.763,1.615,1.638-2.213.606-5.56-1.142-7.39-1.578-1.651-3.638-2.072-5.824-2.142-3.661-.118-7.327-.126-10.989-.13-9.021-.011-18.053.046-27.068.387-1.823.069-4.04-.1-5.731.633-3.069,1.337-4.115,5.694-2.893,8.622a1.657,1.657,0,0,0,1.969,1.118,1.608,1.608,0,0,0,1.117-1.968Z"/>
<path class="a" d="M230.369,131.352c-.821-1.969-.328-4.851,2.123-5.043,1.29-.1,2.59-.132,3.883-.179,3.726-.134,7.455-.207,11.183-.263,7.8-.116,15.61-.175,23.412-.046,1.334.022,2.689,0,4.019.107,1.942.159,4.706,2.614,3.178,4.679-1.226,1.656,1.55,3.254,2.763,1.615,1.638-2.213.607-5.56-1.142-7.389-1.578-1.652-3.638-2.073-5.824-2.143-3.661-.118-7.326-.125-10.989-.13-9.021-.011-18.052.046-27.067.387-1.823.069-4.041-.1-5.732.633-3.069,1.337-4.114,5.694-2.892,8.622a1.655,1.655,0,0,0,1.968,1.118,1.608,1.608,0,0,0,1.117-1.968Z"/>
<path class="a" d="M214.249,183.887a65.231,65.231,0,0,0-10-3.793,24.364,24.364,0,0,0-6.226-1.142,1.6,1.6,0,0,0,0,3.2c.316,0,.63.028.945.061.1.01.2.023.3.036-.139-.018-.217-.032-.032,0,.241.038.482.077.722.121,1.159.212,2.3.494,3.437.812a60.142,60.142,0,0,1,9.24,3.47,1.647,1.647,0,0,0,2.19-.574,1.614,1.614,0,0,0-.574-2.189Z"/>
<path class="a" d="M199.316,179.784c-.08-.437-.159-.875-.218-1.314-.022-.171-.042-.342-.056-.513-.01-.119-.006-.241-.023-.359-.037-.264.062-.225-.032-.012.352-.8,1.481-1.265,2.291-1.664a10.506,10.506,0,0,0,3.293-2.127,7.727,7.727,0,0,0,1.879-3.907c.465-2.738-.081-5.923-2.261-7.831a8.4,8.4,0,0,0-7.1-1.968c-2.784.511-5.4,2.472-5.616,5.449-.146,2.055,3.055,2.045,3.2,0a2.189,2.189,0,0,1,1.052-1.505,5.456,5.456,0,0,1,2.427-.892,5,5,0,0,1,4.38,1.814,5.838,5.838,0,0,1,.078,6.172,5.332,5.332,0,0,1-2.314,1.721,14.653,14.653,0,0,0-2.934,1.723,3.958,3.958,0,0,0-1.549,2.946,16.69,16.69,0,0,0,.415,3.117,1.614,1.614,0,0,0,1.968,1.118,1.634,1.634,0,0,0,1.117-1.968Z"/>
<path class="a" d="M203.339,296.88a240.149,240.149,0,0,1-37.651-4.89c-.621-.125-1.245-.248-1.862-.394a1.7,1.7,0,0,0-.469-.116c-.024,0-.1-.049-.121-.038.046-.029,1.311,1.143,1.131,1.485a4.406,4.406,0,0,0,.105-1.232c.24-2.374.521-4.743.8-7.113q1.565-13.518,3.207-27.027,2.022-16.85,4.055-33.7,1.644-13.666,3.264-27.337l.273-2.337c.237-2.042-2.965-2.025-3.2,0q-1.533,13.182-3.138,26.355-2.056,17.107-4.117,34.213-1.708,14.221-3.384,28.446c-.308,2.651-.62,5.3-.9,7.956-.171,1.626-.382,3.05,1.648,3.53,4.446,1.052,9.008,1.733,13.517,2.444,7.148,1.128,14.336,2.093,21.553,2.645q2.644.2,5.293.309c2.06.079,2.056-3.121,0-3.2Z"/>
<path class="a" d="M221.183,194.405c-.58,5.62-1.192,11.236-1.791,16.854q-1.825,17.114-3.646,34.227-2.142,20.131-4.266,40.265-1.86,17.642-3.685,35.289c-.658,6.406-1.395,12.815-1.9,19.237-.018.232-.036.464-.049.7a1.611,1.611,0,0,0,1.175,1.543,107.585,107.585,0,0,0,15.363,1.925c6.5.507,13.025.807,19.546.785a1.633,1.633,0,0,0,1.6-1.6c.812-14.738,1.506-29.483,2.223-44.226q1.24-25.485,2.467-50.971c.248-5.082.483-10.165.762-15.245h-3.2c.336,11.615,1.076,23.228,1.673,34.831q1.377,26.783,2.838,53.558.6,11.1,1.236,22.19a1.633,1.633,0,0,0,1.6,1.6c5.308.089,10.628-.21,15.916-.65a142.725,142.725,0,0,0,16.605-2.2,1.6,1.6,0,0,0,1.174-1.543c-.633-8.407-1.379-16.806-2.124-25.2q-1.575-17.746-3.241-35.483-1.752-18.765-3.569-37.524-1.518-15.667-3.108-31.33c-.591-5.756-1.1-11.539-1.91-17.27-.033-.235-.067-.469-.106-.7-.345-2.026-3.429-1.167-3.086.851.041.242.074.486.11.729.048.323-.053-.425.012.093.026.2.053.409.078.613.132,1.056.253,2.113.372,3.17.37,3.284.714,6.57,1.055,9.857q1.55,14.945,2.986,29.9,1.813,18.611,3.556,37.23,1.689,18,3.308,36.011c.8,8.926,1.592,17.853,2.293,26.787q.088,1.134.174,2.269l1.175-1.543a136.328,136.328,0,0,1-16.145,2.115c-5.158.42-10.347.7-15.525.618l1.6,1.6q-1.312-22.666-2.482-45.342-1.345-25.293-2.609-50.59c-.239-4.88-.514-9.763-.656-14.647a1.6,1.6,0,0,0-3.2,0c-.653,11.892-1.177,23.792-1.752,35.688q-1.288,26.688-2.6,53.376c-.355,7.126-.708,14.253-1.1,21.378l1.6-1.6c-6.392.021-12.788-.267-19.161-.755a103.255,103.255,0,0,1-14.9-1.841l1.174,1.543c.3-5.507,1.033-11.017,1.593-16.5q1.74-17.026,3.544-34.045,2.118-20.129,4.26-40.255,1.884-17.726,3.775-35.45,1.044-9.785,2.083-19.569l.078-.748c.21-2.047-2.991-2.032-3.2,0Z"/>
<path class="a" d="M247.47,178.952a34.9,34.9,0,0,0-6.126.913q-4.913.96-9.75,2.268a45.746,45.746,0,0,0-9.523,3.259,14.2,14.2,0,0,0-6.736,8.3c-.6,1.975,2.487,2.819,3.085.851a10.929,10.929,0,0,1,6.469-6.927,79.763,79.763,0,0,1,8.577-2.669q4.331-1.134,8.728-2a30.4,30.4,0,0,1,5.276-.8c2.058-.026,2.063-3.226,0-3.2Z"/>
<path class="a" d="M198.4,178.952a34.927,34.927,0,0,0-6.127.913q-4.911.96-9.75,2.268A45.757,45.757,0,0,0,173,185.392a14.2,14.2,0,0,0-6.737,8.3c-.6,1.975,2.488,2.819,3.086.851a10.926,10.926,0,0,1,6.469-6.927,79.693,79.693,0,0,1,8.577-2.669q4.331-1.134,8.728-2a30.384,30.384,0,0,1,5.276-.8c2.058-.026,2.063-3.226,0-3.2Z"/>
<path class="a" d="M246.811,182.152a30.513,30.513,0,0,1,5.275.8q4.393.858,8.729,2a79.763,79.763,0,0,1,8.577,2.669,10.927,10.927,0,0,1,6.47,6.931c.6,1.965,3.686,1.127,3.085-.851a14.2,14.2,0,0,0-6.737-8.3,45.69,45.69,0,0,0-9.523-3.26q-4.83-1.308-9.75-2.268a34.9,34.9,0,0,0-6.126-.913c-2.06-.026-2.061,3.174,0,3.2Z"/>
<path class="a" d="M248.769,179.784c-.081-.437-.159-.875-.218-1.314-.023-.171-.042-.342-.056-.513-.01-.119-.007-.241-.023-.359-.038-.264.062-.225-.033-.012.353-.8,1.482-1.265,2.291-1.664a10.51,10.51,0,0,0,3.294-2.127,7.727,7.727,0,0,0,1.879-3.907c.464-2.738-.081-5.923-2.262-7.831a8.4,8.4,0,0,0-7.1-1.968c-2.783.511-5.4,2.472-5.615,5.449-.146,2.055,3.054,2.045,3.2,0a2.186,2.186,0,0,1,1.052-1.505,5.452,5.452,0,0,1,2.427-.892,5,5,0,0,1,4.38,1.814,5.84,5.84,0,0,1,.078,6.172,5.338,5.338,0,0,1-2.314,1.721,14.625,14.625,0,0,0-2.934,1.723,3.958,3.958,0,0,0-1.549,2.946,16.773,16.773,0,0,0,.414,3.117,1.614,1.614,0,0,0,1.968,1.118,1.636,1.636,0,0,0,1.118-1.968Z"/>
<path class="a" d="M154.046,237.627q0,9.582-.009,19.163-.011,14.5-.023,29-.014,16.7-.03,33.4L153.951,351q-.015,12.4-.03,24.8l0,2.288a1.6,1.6,0,0,0,3.2,0q.017-11.754.029-23.508.017-15.617.032-31.231.018-16.767.032-33.535.012-14.919.024-29.839.006-10.356.01-20.712,0-.818,0-1.636a1.6,1.6,0,0,0-3.2,0Z"/>
<path class="a" d="M154.069,150.776q-.01,16.7-.023,33.407a1.6,1.6,0,0,0,3.2,0q.009-16.7.023-33.407a1.6,1.6,0,0,0-3.2,0Z"/>
<path class="a" d="M154.115,75.238q-.019,25.947-.036,51.892,0,7.527-.01,15.053a1.6,1.6,0,0,0,3.2,0q.019-26.533.036-53.066,0-6.939.01-13.879a1.6,1.6,0,0,0-3.2,0Z"/>
<path class="a" d="M290.976,159.442q-.018,24.271-.033,48.543l-.033,49.144-.033,46.5q-.015,20.291-.033,40.579-.015,15.425-.033,30.85,0,1.514,0,3.027a1.6,1.6,0,0,0,3.2,0q.019-14.781.033-29.561.018-19.707.033-39.415l.033-45.929.033-49.215q.016-24.31.033-48.622,0-2.952,0-5.9a1.6,1.6,0,0,0-3.2,0Z"/>
<path class="a" d="M291.077,76.109q-.032,22.778-.045,45.554l-.015,20.3a1.6,1.6,0,0,0,3.2,0q.021-27.122.045-54.243l.015-11.609a1.6,1.6,0,0,0-3.2,0Z"/>
<path class="a" d="M299.257,277.145q0,15-.038,30-.036,22.706-.076,45.412-.022,12.764-.04,25.527a1.6,1.6,0,0,0,3.2,0q.033-23.1.075-46.2.035-20.442.066-40.883.009-6.929.013-13.857a1.6,1.6,0,0,0-3.2,0Z"/>
<path class="a" d="M299.374,75.517q-.027,18.543-.046,37.086-.025,23.693-.045,47.387-.014,15.911-.026,31.822a1.6,1.6,0,0,0,3.2,0q.021-26.933.046-53.864.02-21.365.045-42.729.012-9.85.026-19.7a1.6,1.6,0,0,0-3.2,0Z"/>
<path class="a" d="M146.17,278.4q0,14.594.032,29.187.027,21.288.031,42.577,0,13.959-.019,27.919a1.6,1.6,0,0,0,3.2,0q.033-23.867.012-47.733-.013-18.728-.044-37.454-.009-7.248-.012-14.5a1.6,1.6,0,0,0-3.2,0Z"/>
<path class="a" d="M146.184,75.628q-.043,30.4-.021,60.809,0,11.206.007,22.412a1.6,1.6,0,0,0,3.2,0q-.012-34.4,0-68.794,0-7.214.015-14.427a1.6,1.6,0,0,0-3.2,0Z"/>
<path class="a" d="M222.784,195.708c16.148-.027,32.3-.215,48.443-.222a1.6,1.6,0,0,0,0-3.2c-16.147.007-32.295.195-48.443.222a1.6,1.6,0,0,0,0,3.2Z"/>
<path class="a" d="M174.969,195.708l18.55-.031c5.567-.009,11.143.172,16.708.106,2.058-.025,2.063-3.225,0-3.2-5.565.066-11.141-.115-16.708-.106l-18.55.031a1.6,1.6,0,0,0,0,3.2Z"/>
<path class="a" d="M372.619,392.94c-.006-17.722-.489-35.447-.7-53.166-.049-4.162-.1-8.323-.1-12.485a1.6,1.6,0,0,0-3.2,0c0,18.355.46,36.712.7,55.064.045,3.529.1,7.058.1,10.587a1.6,1.6,0,0,0,3.2,0Z"/>
<path class="a" d="M365.1,391.539c-6.218,0-12.438.167-18.655.288-4.683.092-6.678,5.73-7.93,9.458a19.427,19.427,0,0,0-1.3,5.283,1.621,1.621,0,0,0,1.6,1.6c6.136,0,12.272-.109,18.407-.168q15.147-.144,30.293-.267c3.894-.03,7.788-.062,11.682-.062a1.62,1.62,0,0,0,1.6-1.6,16.9,16.9,0,0,0-1.29-5.046,24.77,24.77,0,0,0-3.311-6.588,7.89,7.89,0,0,0-2.332-2.2,7.067,7.067,0,0,0-3.555-.6q-5.165-.09-10.33-.179c-2.986-.049-5.973-.109-8.96-.111a1.6,1.6,0,0,0,0,3.2c5.4,0,10.8.141,16.2.236,1.479.026,2.973-.008,4.449.077a2.266,2.266,0,0,1,1.5.913,16.627,16.627,0,0,1,2.979,5.372c.4,1.049.766,2.117,1.067,3.2.112.406.213.813.3,1.224a4.311,4.311,0,0,0,.089.469c-.09-.259-.016-.176-.01.04l1.6-1.6c-8.155,0-16.311.095-24.467.167q-14.307.128-28.614.268c-2.434.023-4.867.06-7.3.062l1.6,1.6c.006-.188.122-.29-.018.074a3.486,3.486,0,0,0,.084-.458c.1-.436.195-.871.306-1.3q.44-1.7,1.027-3.351c.723-2.046,1.721-4.963,3.535-6.234.333-.234.454-.254.6-.258.936-.029,1.873-.037,2.81-.055q3-.057,5.994-.111c3.451-.061,6.9-.13,10.353-.132a1.6,1.6,0,0,0,0-3.2Z"/>
<path class="a" d="M362.907,327.289c0,7.572.12,15.144.2,22.715q.167,15.44.321,30.878c.036,4.085.073,8.171.074,12.257a1.6,1.6,0,0,0,3.2,0c0-8.418-.114-16.837-.2-25.255q-.158-15.087-.32-30.173c-.034-3.474-.074-6.948-.075-10.422a1.6,1.6,0,0,0-3.2,0Z"/>
<path class="a" d="M342.744,220.8a346.033,346.033,0,0,0-10.308,36.871c-3.4,14.587-6.316,29.289-8.9,44.041q-2.109,12.027-3.885,24.107a1.628,1.628,0,0,0,1.543,2.026c22.925,0,45.847.482,68.772.564q10.18.036,20.362-.043a1.627,1.627,0,0,0,1.542-2.025c-3.846-25.721-7.815-51.47-14.564-76.621q-2.933-10.923-6.511-21.658c-.646-1.945-3.738-1.112-3.085.85,8.172,24.566,13.444,49.846,17.554,75.374,1.228,7.627,2.378,15.266,3.521,22.905l1.543-2.025c-23.318.2-46.632-.218-69.947-.426q-9.594-.086-19.187-.1l1.543,2.025q3.183-21.765,7.472-43.352c2.8-14.173,5.912-28.3,9.686-42.253,1.767-6.532,3.681-13.032,5.937-19.414.688-1.946-2.4-2.783-3.085-.851Z"/>
<path class="a" d="M386.67,158.271c11.271,7.812,16.917,20.5,20.492,33.293,2.97,10.629,5.62,21.36,8.086,32.117.44,1.922.874,3.845,1.277,5.775.137.657.272,1.314.394,1.973.043.23.08.46.122.689.016.085.026.171.04.257-.03-.19.087-.2-.013-.088-.039.044.059.211.012.262a12.663,12.663,0,0,0,.67-1.256c-.151.2.226-.084.062-.023-.542.2-1.094.379-1.647.551-1.932.6-3.883,1.133-5.835,1.656-2.121.568-4.248,1.116-6.386,1.614-.766.178-1.534.353-2.306.5-.155.03-.311.055-.465.085-.066.013-.447.062-.171.031.307-.034-.088.027-.127.009-.29-.129.059.15,0,.026-.006-.015,1.157.758,1.033.649-.144-.128.075.1.083.207a2.539,2.539,0,0,0-.172-.5c-.171-.525-.311-1.061-.452-1.594-.466-1.759-.882-3.531-1.293-5.3-2.51-10.817-4.761-21.7-6.9-32.6q-.353-1.8-.7-3.594c-.359-1.878-3.008-1.265-3.143.425-.724,9.052-2.7,18.013-4.863,26.815l1.543-1.175c-13.235.494-26.484-.045-39.72.45l1.382.792c-4.633-8.21-8.192-16.717-9.222-26.162-.184-1.692-2.641-2.293-3.143-.425-4.386,16.333-7.142,33.01-10.5,49.57l1.543-1.175a61.015,61.015,0,0,1-11.229-2.337c-1.554-.434-3.107-.892-4.628-1.435-.257-.092-.514-.186-.768-.287-.206-.082.065-.018-.3-.132s-.159-.283-.037.03c.154.4.49.653.4.909a9.051,9.051,0,0,0,.131-1.53c-.058.444.025-.165.041-.27q.048-.321.1-.644.132-.833.276-1.663c.487-2.815,1.04-5.62,1.608-8.42,3.008-14.805,6.243-29.726,11.37-43.963a76,76,0,0,1,6.322-13.735A53.539,53.539,0,0,1,339.738,156.6c1.535-1.379-.734-3.636-2.262-2.262-7.333,6.589-12.394,14.742-15.986,23.863a186.543,186.543,0,0,0-7.158,23.082c-1.944,7.761-3.695,15.573-5.3,23.411-.616,3.007-1.214,6.019-1.741,9.043a26.078,26.078,0,0,0-.694,5.071,2.233,2.233,0,0,0,1.557,2.045,37.831,37.831,0,0,0,4.83,1.654,67.868,67.868,0,0,0,13.374,2.822,1.6,1.6,0,0,0,1.543-1.175c3.357-16.559,6.113-33.236,10.5-49.57l-3.143-.425a60.781,60.781,0,0,0,3.27,14.394,91.359,91.359,0,0,0,6.389,13.384,1.587,1.587,0,0,0,1.381.792c13.236-.5,26.485.044,39.72-.45a1.637,1.637,0,0,0,1.543-1.175,175.273,175.273,0,0,0,4.977-27.665l-3.143.425q3.289,17.213,7.168,34.313c.474,2.081.954,4.16,1.478,6.228a16.091,16.091,0,0,0,1.053,3.478c.669,1.279,1.932,1.058,3.12.846,1.9-.339,3.772-.826,5.639-1.3q3.381-.856,6.738-1.808a24.969,24.969,0,0,0,4.607-1.488c1.192-.617,1.123-1.642.944-2.776-.214-1.354-.514-2.7-.8-4.035-2.377-11-5.12-21.942-8.048-32.808a112.508,112.508,0,0,0-6.042-18.016,53.1,53.1,0,0,0-12.7-17.659,46.214,46.214,0,0,0-4.267-3.333c-1.7-1.175-3.3,1.6-1.615,2.764Z"/>
<path class="a" d="M351.217,233.749c9.6-.358,19.2.027,28.8-.332,2.053-.076,2.063-3.277,0-3.2-9.6.359-19.2-.026-28.8.332-2.053.077-2.063,3.277,0,3.2Z"/>
<path class="a" d="M352.908,149.4a9.546,9.546,0,0,0,1.881-3.142,18.346,18.346,0,0,0,.737-3.561,47.345,47.345,0,0,0,.461-6.948,1.6,1.6,0,0,0-3.2,0,44.345,44.345,0,0,1-.317,5.9c-.293,2.044-.537,4.031-1.824,5.491a1.636,1.636,0,0,0,0,2.262,1.613,1.613,0,0,0,2.262,0Z"/>
<path class="a" d="M369.547,136.009a48.031,48.031,0,0,0,.614,7.723,13.025,13.025,0,0,0,1.022,3.589,9.681,9.681,0,0,0,2.323,2.969,1.634,1.634,0,0,0,2.262,0,1.614,1.614,0,0,0,0-2.262,6.89,6.89,0,0,1-1.822-2.322,13.517,13.517,0,0,1-.737-3.059,42.544,42.544,0,0,1-.462-6.638,1.6,1.6,0,0,0-3.2,0Z"/>
<path class="a" d="M342.862,110.921c.6,9.286,3,19.318,11,25.018a17.95,17.95,0,0,0,12.286,3.435,16.38,16.38,0,0,0,10.976-6.726c3.577-4.7,4.931-10.562,6.175-16.221.442-2.007-2.642-2.865-3.085-.851-1.692,7.7-4.149,18.2-13.079,20.391-7.9,1.941-15.078-4.33-18.09-11.073a40.7,40.7,0,0,1-2.982-13.973c-.133-2.044-3.334-2.059-3.2,0Z"/>
<path class="a" d="M346.328,101.394a18.59,18.59,0,0,1,14.379-10.94,17.369,17.369,0,0,1,16.4,7.341,17.876,17.876,0,0,1,3.419,10.01c.04,2.056,3.241,2.063,3.2,0a21.722,21.722,0,0,0-11.181-18.254,21.2,21.2,0,0,0-28.981,10.228,1.657,1.657,0,0,0,.574,2.189,1.609,1.609,0,0,0,2.189-.574Z"/>
<path class="a" d="M377.748,164.85a25.808,25.808,0,0,1-14.37,3.85,25.189,25.189,0,0,1-5.916-.878,16.316,16.316,0,0,1-5.531-2.905,57.212,57.212,0,0,1-6.142-5.381c-1.622-1.564-3.76-2.543-5.285-4.2-2.955-3.217,1.937-7.607,4.822-8.823a3.35,3.35,0,0,1,3.731.293,5.144,5.144,0,0,1,1.353,2.407c1.083,3.647,3.721,5.909,6.935,7.758a11.873,11.873,0,0,0,7.547,1.787,16.23,16.23,0,0,0,6.064-1.773,11.166,11.166,0,0,0,4.027-4.207c.873-1.573.953-3.526,1.889-5.038.985-1.59,3.931-.769,5.34-.211a7.636,7.636,0,0,1,4.326,4.586c.659,2.433-.72,5-2.146,6.886a26.545,26.545,0,0,1-6.644,5.852c-1.707,1.135-.106,3.907,1.616,2.763,4.508-3,9.609-7.234,10.43-12.946.709-4.93-3.26-9.5-7.943-10.573-2.044-.47-4.564-.826-6.373.494-1.836,1.339-2.122,3.632-2.841,5.626a7.726,7.726,0,0,1-3.911,4.327,11,11,0,0,1-7.188.823,14.785,14.785,0,0,1-3.859-1.952,9.636,9.636,0,0,1-2.959-2.539,12.273,12.273,0,0,1-1.388-3.009c-1.2-3.335-3.971-5.584-7.644-4.812a12.8,12.8,0,0,0-6.322,3.913c-1.615,1.715-3.165,4.026-3.061,6.486s1.9,4.305,3.757,5.7c.969.729,2.009,1.37,2.93,2.161,1.222,1.049,2.268,2.291,3.483,3.353s2.523,2.058,3.841,3.012a20.108,20.108,0,0,0,3.471,2.232,25.2,25.2,0,0,0,7.871,1.878,30.091,30.091,0,0,0,8.336-.57,25.3,25.3,0,0,0,9.37-3.607C381.08,166.489,379.478,163.717,377.748,164.85Z"/>
<path class="b" d="M68.094,132.189a12.136,12.136,0,0,1,1.278-2.613c.053.045.106.09.16.133a5.727,5.727,0,0,0,2.664,1.2l.87.134a23.09,23.09,0,0,0,4.4,8.6,19.621,19.621,0,0,0,6.989,5.518,32.163,32.163,0,0,1-.465,3.761,6.537,6.537,0,0,1-.8,2.849l-1.653-.049c-6.659,5.5-17.873,1.089-16.577-1,2.211-.751,3.177-3.416,3.069-5.735s-.7-4.712-.742-7.039a21.473,21.473,0,0,1,.148-2.929A14.285,14.285,0,0,1,68.094,132.189Z"/>
<path class="c" d="M117.016,117.008a3.4,3.4,0,0,1,2.719-.8,3.21,3.21,0,0,1,2.307,1.534,4.53,4.53,0,0,1,.475,1.825,13.585,13.585,0,0,1-1.386,7.206,8.632,8.632,0,0,1-2.234,2.932,5.727,5.727,0,0,1-2.664,1.2l-.456.071c-.219.818-.464,1.507-.585,1.873-.808,2.192-5.48,10-11.261,12.351a34.253,34.253,0,0,0,.49,4.339c.295,1.685.2,3.192,2.546,4.038.156.056,6.8,3.218,7.039,3.316,0,0-2.025,14.188-19.64,14.188s-20.937-14.448-20.937-14.448c.451-.154,7.863-3.621,8.018-3.677,2.344-.846,2.251-2.353,2.547-4.038a32.163,32.163,0,0,0,.465-3.761,19.621,19.621,0,0,1-6.989-5.518,23.141,23.141,0,0,1-4.407-8.6l-.867-.133a5.727,5.727,0,0,1-2.664-1.2,8.62,8.62,0,0,1-2.234-2.932,13.585,13.585,0,0,1-1.386-7.206,4.529,4.529,0,0,1,.474-1.825,3.21,3.21,0,0,1,2.307-1.534,3.393,3.393,0,0,1,2.719.8s.172-18.729,22.015-18.729S117.016,117.008,117.016,117.008Z"/>
<path class="b" d="M71.173,116.712c4.439-3.622,13.282-9.264,17.53-12.918-.349,2.169-1.591,5.857-.027,5.478,6.534-1.513,12.8-4.565,16.57-9.335a45.98,45.98,0,0,0,3.09,8.278c1.409,2.413,5.509,8,9.087,8.485a3.44,3.44,0,0,1,2.312-.488,2.62,2.62,0,0,1,.421.1c1.918-4.471.951-12.034.187-15.805-2.363-11.678-14.035-20.948-26.274-20.271C81.83,79.555,70.159,88.825,67.8,100.5a33.433,33.433,0,0,0,.018,11.052l.879,4.657a3.393,3.393,0,0,1,2.719.8"/>
<path class="d" d="M69.357,111.13a28.02,28.02,0,0,1-.222-8.889,21.011,21.011,0,0,1,2.871-8.226A25.28,25.28,0,0,1,86.232,82.8a30.431,30.431,0,0,1,9.095-1,22.863,22.863,0,0,1,9.016,1.883,25.394,25.394,0,0,1,12.926,12.5,28.452,28.452,0,0,1,2.2,9.2c.339,3.449.483,7.182-.837,10.455-.77,1.909,2.324,2.739,3.086.85,1.284-3.184,1.3-6.855,1.044-10.23a36.7,36.7,0,0,0-1.714-9.409,28.1,28.1,0,0,0-13.182-15.2,27.378,27.378,0,0,0-10.046-3.114,33.585,33.585,0,0,0-10.382.45A28.5,28.5,0,0,0,70.589,90.35a27.422,27.422,0,0,0-4.318,21.631c.439,2.011,3.524,1.16,3.086-.851Z"/>
<path class="d" d="M82.854,145.265a31.157,31.157,0,0,1-.384,3.122,18.561,18.561,0,0,1-.349,1.948c-.038.136-.231.5-.038.167-.069.118-.134.241-.2.36-.1.177.2-.154.029-.034a1.228,1.228,0,0,0-.13.139c-.062.061-.129.122-.2.177.185-.148.013-.02-.091.039-.342.193-.637.3-1.072.494-1.857.845-3.7,1.718-5.555,2.57-.479.22-.957.44-1.438.657l-.514.23c-.356.16.409-.153.089-.039a1.641,1.641,0,0,0-1.117,1.968,1.614,1.614,0,0,0,1.968,1.118c.766-.274,1.508-.657,2.247-1q1.71-.784,3.415-1.578l2.52-1.166c.067-.031.139-.056.2-.092.012-.006-.587.237-.279.122.151-.056.3-.12.445-.183a5.444,5.444,0,0,0,.769-.381,4.61,4.61,0,0,0,1.88-2.279,10.293,10.293,0,0,0,.46-2.151c.231-1.4.443-2.8.54-4.212a1.6,1.6,0,0,0-3.2,0Z"/>
<path class="d" d="M102.333,145.265a44.149,44.149,0,0,0,.761,6.05,4.929,4.929,0,0,0,3.268,3.742c.519.206-.436-.211-.067-.033.123.06.249.116.373.174l1.175.554,3.179,1.5c.723.342,1.44.71,2.176,1.023a1.654,1.654,0,0,0,2.19-.574,1.612,1.612,0,0,0-.574-2.189c-1.562-.665-3.08-1.451-4.614-2.177-.745-.352-1.487-.712-2.236-1.053-.463-.211-.729-.31-1.128-.534-.014-.008-.215-.152-.078-.045s-.071-.07-.1-.1c-.048-.044-.089-.095-.136-.141.043.042.163.27.02.026-.06-.1-.113-.218-.181-.314.157.223.06.173.022.051-.023-.077-.051-.152-.074-.229a18.645,18.645,0,0,1-.4-2.219,31.438,31.438,0,0,1-.374-3.517,1.634,1.634,0,0,0-1.6-1.6,1.616,1.616,0,0,0-1.6,1.6Z"/>
<path class="d" d="M103.805,100.718a33.476,33.476,0,0,0,4.46,10.3c2.051,2.861,4.831,6.339,8.443,7.174,2,.464,2.859-2.621.85-3.085a8.25,8.25,0,0,1-3.61-2.3,25.373,25.373,0,0,1-3.148-3.73,30.928,30.928,0,0,1-3.909-9.216c-.578-1.972-3.667-1.133-3.086.85Z"/>
<path class="d" d="M104.186,98.738a24.513,24.513,0,0,1-10.234,7.227q-1.53.606-3.107,1.076-.791.237-1.591.443a2.875,2.875,0,0,0-.8.2q-.609.079.387.307a.689.689,0,0,1,.616.3,13.313,13.313,0,0,0,.271-1.552c.171-.84.375-1.673.52-2.519a1.614,1.614,0,0,0-2.674-1.556c-5.526,4.712-11.891,8.346-17.53,12.918-1.6,1.3.676,3.549,2.263,2.263,5.64-4.572,12-8.2,17.53-12.919l-2.675-1.556c-.317,1.845-1.273,4.108-.719,5.976.808,2.723,4.484,1.048,6.238.473,5.214-1.709,10.29-4.483,13.77-8.818,1.277-1.591-.974-3.869-2.263-2.262Z"/>
<path class="d" d="M67.682,129.272a18.188,18.188,0,0,0-1.757,11.414c.234,1.8.734,3.756.454,5.577a4.821,4.821,0,0,1-.659,1.861,3.737,3.737,0,0,1-1.565,1.219,2.227,2.227,0,0,0-.55,2.983,5.09,5.09,0,0,0,1.976,1.782,16.143,16.143,0,0,0,7.347,1.865,14.569,14.569,0,0,0,9.744-3.118,1.613,1.613,0,0,0,0-2.263,1.637,1.637,0,0,0-2.263,0,11.9,11.9,0,0,1-9.352,2,12.408,12.408,0,0,1-3.631-1.125,3.519,3.519,0,0,1-.974-.652c-.239-.225-.042-.087,0,.107a2.367,2.367,0,0,1-.108.607l-.956.736c3.764-1.439,4.521-5.435,4.085-9.032-.51-4.208-1.22-8.466.972-12.349,1.015-1.8-1.749-3.41-2.763-1.615Z"/>
<path class="d" d="M118.148,118.139a1.738,1.738,0,0,1,2.457.324,3.725,3.725,0,0,1,.357,1.9,11.369,11.369,0,0,1-.159,2.338c-.507,2.777-1.907,6.114-4.995,6.667a1.614,1.614,0,0,0-1.118,1.968,1.635,1.635,0,0,0,1.968,1.118c4.806-.862,7.1-6.282,7.462-10.638.187-2.257-.011-4.809-1.96-6.267a5.026,5.026,0,0,0-6.275.328,1.613,1.613,0,0,0,0,2.263,1.635,1.635,0,0,0,2.263,0Z"/>
<path class="d" d="M114.6,128.38a12.718,12.718,0,0,1-.744,3.435c-.05.153-.391,1.049-.175.559-.107.242-.219.481-.338.718a29.031,29.031,0,0,1-2.512,4.037c-2.174,2.982-5.128,6.144-8.851,7.017-2,.471-1.155,3.557.851,3.086,4.5-1.056,7.992-4.734,10.64-8.32,2.285-3.094,4.17-6.6,4.329-10.532.083-2.059-3.117-2.055-3.2,0Z"/>
<path class="d" d="M72.544,115.876a5.026,5.026,0,0,0-6.275-.328c-1.951,1.453-2.147,4.014-1.96,6.267.362,4.355,2.656,9.776,7.462,10.638a1.646,1.646,0,0,0,1.968-1.118,1.614,1.614,0,0,0-1.118-1.968c-3.088-.554-4.488-3.89-4.995-6.667a11.232,11.232,0,0,1-.161-2.2,4.369,4.369,0,0,1,.3-1.942,1.726,1.726,0,0,1,2.513-.414,1.645,1.645,0,0,0,2.263,0,1.614,1.614,0,0,0,0-2.263Z"/>
<path class="d" d="M70.79,128.207a26.5,26.5,0,0,0,5.652,12.69,18.951,18.951,0,0,0,12.366,7.021,1.611,1.611,0,0,0,1.6-1.6,1.637,1.637,0,0,0-1.6-1.6c-4.2-.453-7.706-3.159-10.311-6.333a23.592,23.592,0,0,1-4.622-11.028,1.613,1.613,0,0,0-1.968-1.118,1.637,1.637,0,0,0-1.117,1.968Z"/>
<path class="d" d="M89.962,135.751a9.6,9.6,0,0,0,4.621,1.079,7.619,7.619,0,0,0,4.754-1.441,1.6,1.6,0,0,0,0-2.263,1.65,1.65,0,0,0-2.263,0c.554-.431-.015-.013-.19.079-.135.071-.5.183.011.011-.126.043-.248.095-.375.136-.338.109-.717.124-1.047.239.169-.059.262-.031.022-.008-.1.011-.2.019-.308.026-.248.016-.5.022-.745.021-.222,0-.445-.009-.667-.024-.1-.007-.2-.015-.305-.026-.058-.005-.116-.012-.174-.019-.126-.015-.076-.009.149.02a4.145,4.145,0,0,1-.979-.217c-.137-.041-.271-.091-.406-.137-.357-.122.339.162.015.009-.168-.079-.334-.161-.5-.248a1.6,1.6,0,1,0-1.615,2.763Z"/>
<path class="d" d="M93.56,125.137a20.777,20.777,0,0,1,.485,2.218l-.057-.426a1.363,1.363,0,0,1,.008.306l.057-.425a.732.732,0,0,1-.034.138l.162-.383a.48.48,0,0,1-.049.089l.25-.324a.446.446,0,0,1-.072.072l.324-.251a1.406,1.406,0,0,1-.176.093l.382-.161a1.258,1.258,0,0,1-.3.086l.426-.057a1.175,1.175,0,0,1-.278,0l.425.057c-.105-.015-.208-.04-.312-.054a1.205,1.205,0,0,0-.638-.029,1.192,1.192,0,0,0-.595.19A1.6,1.6,0,0,0,93,128.465l.25.324a1.6,1.6,0,0,0,.706.411c.28.038.551.108.836.12a2.743,2.743,0,0,0,1.283-.313,1.95,1.95,0,0,0,1.053-1.275,3,3,0,0,0-.011-1.323c-.12-.714-.285-1.422-.469-2.123a1.652,1.652,0,0,0-.735-.956,1.6,1.6,0,0,0-2.19.574,1.686,1.686,0,0,0-.161,1.233Z"/>
<path class="d" d="M82.281,118.734c-.37,1.2-.129,3.972,2.151,4.207,3.013-.018,3.174-3.365,2.159-4.939C85.761,116.714,83.319,116.178,82.281,118.734Z"/>
<path class="d" d="M106.412,118.734c.37,1.2.129,3.972-2.151,4.207-3.013-.018-3.174-3.365-2.159-4.939C102.932,116.714,105.374,116.178,106.412,118.734Z"/>
<path class="c" d="M88.557,217.059c1.132.156,8.784.536,13.033-.458,4.833-1.129,22.288-4.421,25.417-5.636a52.855,52.855,0,0,0,14.711,12.386.439.439,0,0,0,.743-.22,18.989,18.989,0,0,0-.049-16.768,5.037,5.037,0,0,0-.88-1.318l-.007-.024c-1.064-3.9-3.277-14.175-3.847-16.5-.885-3.612-3.211-14.024-3.994-17.027a17.734,17.734,0,0,0-2.939-6.342,10.983,10.983,0,0,0-1.5-1.032l-.222-.121-.431-.344a19.37,19.37,0,0,0-3.037-1.693c-3.638-1.978-6.968-3.746-10.593-5.463-2.578-2.547-5.749-6.262-8.038-6.445-2.279,3.077-3.191,7.066-5.813,11.169-1.966,3.079-3.591,5.728-5.168,8.7l-2.334,3.519-3.914-5.465c-2.479-4.7-8.206-13.5-9.744-17.608-2.314,1.717-4.66,2.733-6.79,6.349-3.443,1.65-6.639,3.348-10.117,5.239a21.821,21.821,0,0,0-3.211,1.822l-.669.336a11.058,11.058,0,0,0-1.5,1.032,17.732,17.732,0,0,0-2.938,6.342c-.783,3-3.109,13.415-3.994,17.027-.57,2.326-2.783,12.6-3.848,16.5-.32,1.173-.677,2.915-.059,2.917C47.986,207.942,88.557,217.059,88.557,217.059Z"/>
<path class="c" d="M113.068,329.9c1.924,15.3-1.247,30.709-3.15,46.011-1.3,10.429-1.518,22.363,5.858,29.85,1.58,1.576,2.167,5.174,1.035,6.966-1.715,2.717-5.577,1.26-8.356-.006-3.352-1.528-6.561-3.379-9.923-4.881-2.122-.949-3.427-2.067-5.853-1.669-1.971.323-3.246,1.533-4.893,2.73-3.327,2.416-6.877,4.7-11.136,4.531-3.1-.122-7.379-3.54-5.072-6.894.88-1.279,2.384-1.971,3.333-3.336a21.893,21.893,0,0,0,2.54-4.938c2.611-7.077,2.109-15,1.2-22.353-1.9-15.3-5.074-30.712-3.149-46.011"/>
<path class="d" d="M73.9,329.9c-1.362,11.136-.1,22.318,1.422,33.368,1.293,9.4,3.439,19.285,2.028,28.8a22.413,22.413,0,0,1-5.69,12.563c-1.432,1.482.828,3.747,2.263,2.263,6.354-6.575,7.424-16.046,6.911-24.781-.641-10.924-3.013-21.693-3.91-32.6A96.269,96.269,0,0,1,77.1,329.9a1.611,1.611,0,0,0-1.6-1.6,1.637,1.637,0,0,0-1.6,1.6Z"/>
<path class="d" d="M92.567,329.6c0,19.994.065,39.99-.265,59.981q-.146,8.84-.415,17.676c-.064,2.059,3.136,2.057,3.2,0,.641-20.661.672-41.334.677-62l0-15.654a1.6,1.6,0,0,0-3.2,0Z"/>
<path class="d" d="M111.468,329.9c1.416,11.584-.005,23.213-1.612,34.7-1.343,9.6-3.3,19.548-1.575,29.231a24.825,24.825,0,0,0,6.363,13.063c1.434,1.484,3.695-.781,2.263-2.263-6.07-6.28-6.51-15.616-5.885-23.849.814-10.714,3.05-21.277,3.88-32a95.171,95.171,0,0,0-.234-18.883,1.653,1.653,0,0,0-1.6-1.6,1.608,1.608,0,0,0-1.6,1.6Z"/>
<path class="e" d="M68.729,228.477c-1.1,3.869-2.922,14.111-3.812,19.152-4.348,24.638,2.094,79.379,2.26,81.67,14.788.657,40.858,1.127,53.446-.057.121-1.624,6.462-56.975,2.114-81.613-.89-5.041-2.7-15.107-3.806-18.975"/>
<path class="d" d="M67.186,228.052c-1.081,3.852-1.752,7.836-2.481,11.766-.669,3.6-1.377,7.212-1.851,10.849a161.657,161.657,0,0,0-1.034,22.077c.112,15.151,1.208,30.3,2.635,45.377.353,3.725.84,7.447,1.122,11.178a1.642,1.642,0,0,0,1.6,1.6c14.407.636,28.875.935,43.292.5,3.388-.1,6.778-.249,10.154-.562a1.652,1.652,0,0,0,1.6-1.6c.745-9.522,1.853-19.01,2.5-28.545,1.057-15.632,1.972-31.575.405-47.2-.394-3.927-1.1-7.8-1.815-11.678-.834-4.536-1.59-9.143-2.838-13.589a1.6,1.6,0,0,0-3.085.851c1.09,3.885,1.777,7.9,2.518,11.863.654,3.5,1.368,7.006,1.8,10.542a171.849,171.849,0,0,1,.943,22.274c-.136,14.967-1.184,29.928-2.566,44.827-.33,3.552-.778,7.1-1.057,10.657l1.6-1.6c-6.416.594-12.886.677-19.326.717-7.608.048-15.217-.06-22.822-.265q-5.65-.151-11.3-.395l1.6,1.6c-.229-3.029-.626-6.051-.92-9.075q-.958-9.848-1.658-19.719c-1.088-15.585-2.032-31.488-.464-47.073.379-3.77,1.089-7.486,1.77-11.211.812-4.445,1.544-8.962,2.767-13.318a1.6,1.6,0,0,0-3.086-.851Z"/>
<path class="f" d="M61.5,425.935q-.131-.171-.247-.354a6.627,6.627,0,0,1-.438-5.553,18.183,18.183,0,0,1,2.849-4.972q4.125-5.634,8.72-10.9c1.194-1.369,2.543-2.8,4.329-3.133-.289,1.075-.721,3.733.228,4.317a7.342,7.342,0,0,0,3.508.6c4.876.084,10.087-3.412,12.794-5.851.184-.166.528.067.531.332.024,3.141.288,4.5.272,7.97a8.012,8.012,0,0,1-.6,2.687c-.774,2.092-3.067,3.1-4.908,4.359-4.788,3.276-7.31,9.255-12.327,12.168a12.954,12.954,0,0,1-11.976.429A7.561,7.561,0,0,1,61.5,425.935Z"/>
<path class="f" d="M127.468,425.935q.13-.171.247-.354a6.627,6.627,0,0,0,.439-5.553,18.212,18.212,0,0,0-2.85-4.972q-4.125-5.634-8.72-10.9c-1.194-1.369-2.543-2.8-4.329-3.133.289,1.075.776,3.939-.173,4.522a7.8,7.8,0,0,1-3.624.582c-4.835.084-9.951-3.56-12.663-5.973-.21-.187-.6-.046-.6.2-.036,3.159-.41,4.283-.394,7.78a9.754,9.754,0,0,0,.726,2.951c.774,2.092,3.067,3.1,4.908,4.359,4.788,3.276,7.31,9.255,12.327,12.168a12.954,12.954,0,0,0,11.976.429A7.561,7.561,0,0,0,127.468,425.935Z"/>
<path class="d" d="M62.881,425.128c-2.868-4.1,2.022-9.151,4.4-12.244q2.286-2.975,4.718-5.835c1.4-1.657,2.9-3.961,5.14-4.487l-1.968-1.969c-.418,1.651-.83,3.938.234,5.426,1.268,1.771,4.477,1.656,6.4,1.453a19.024,19.024,0,0,0,7.017-2.318,27.41,27.41,0,0,0,2.924-1.836c.489-.351.967-.717,1.438-1.092q.255-.2.506-.412c.119-.1.236-.2.353-.3q.3-.244-.154.07l-1.233-.161.215.138-.736-.957a10.369,10.369,0,0,1,.144,2.845c.051.923.11,1.845.14,2.769.066,2.019.137,4.2-1.481,5.665-1.417,1.283-3.232,2.086-4.708,3.313a29.989,29.989,0,0,0-3.835,4.026c-2.4,2.9-4.787,6.278-8.424,7.7-3.609,1.41-8.734,1.048-11.337-2.117-1.309-1.592-3.562.683-2.263,2.262,3.5,4.253,10.454,4.682,15.206,2.631,4.867-2.1,7.543-6.76,11.041-10.46,1.714-1.814,3.756-2.914,5.722-4.4a8.358,8.358,0,0,0,3.309-6.935c.009-1.265-.059-2.531-.132-3.793a23.1,23.1,0,0,0-.2-4.121,1.979,1.979,0,0,0-2.5-1.449c-1.06.355-2.062,1.577-2.988,2.222a18.132,18.132,0,0,1-8.221,3.527c-.713.073-3.113.346-3.69-.212.248.239.052,0,.047-.2a8.111,8.111,0,0,1,.024-.986,9.214,9.214,0,0,1,.266-1.453,1.618,1.618,0,0,0-1.969-1.968c-2.737.644-4.513,2.917-6.25,4.955q-3,3.522-5.8,7.208c-3.129,4.1-7.771,9.879-4.115,15.1C61.29,428.418,64.065,426.82,62.881,425.128Z"/>
<path class="d" d="M128.849,426.743c3.656-5.225-.986-11-4.115-15.1q-2.736-3.587-5.652-7.03c-1.776-2.091-3.593-4.472-6.4-5.133a1.618,1.618,0,0,0-1.969,1.968,8.341,8.341,0,0,1,.327,2.451,1.589,1.589,0,0,1-.076.587c-.421.7.207-.266.122-.221a4.771,4.771,0,0,1-1.982.252,14.3,14.3,0,0,1-7.658-2.211,27.645,27.645,0,0,1-3.065-2.068c-.956-.744-1.91-2-3.259-1.713-1.523.323-1.507,1.767-1.56,3.014-.049,1.171-.176,2.336-.26,3.5-.189,2.635-.19,5.454,1.315,7.759,1.416,2.167,3.935,3.068,5.862,4.659,4.026,3.325,6.421,8.233,10.848,11.139,4.942,3.244,13.254,3.356,17.273-1.531,1.3-1.578-.953-3.855-2.263-2.262-2.68,3.258-8.047,3.565-11.7,1.97-3.621-1.583-5.969-5.056-8.424-7.984a26.964,26.964,0,0,0-4.052-4.054c-1.461-1.135-3.426-1.9-4.617-3.341-1.289-1.562-1.195-3.8-1.089-5.691.047-.837.129-1.672.2-2.508.035-.434.067-.868.089-1.3.011-.2.2-1.409-.059-.94l-.956.736c-.8.27-1.075-.514-.5.083a6.417,6.417,0,0,0,.623.514q.7.565,1.43,1.1a28.32,28.32,0,0,0,3.065,1.971,17.564,17.564,0,0,0,7.344,2.348c1.853.111,4.906.2,6.026-1.612.953-1.54.5-3.859.08-5.5l-1.968,1.969c2.177.512,3.619,2.7,4.989,4.309q2.505,2.949,4.869,6.013c2.378,3.094,7.266,8.144,4.4,12.244C124.9,426.819,127.676,428.42,128.849,426.743Z"/>
<path class="g" d="M120.529,186.916a49.487,49.487,0,0,1-.564,18.554c-1.11,4.7-1.613,19.445-.85,24.616"/>
<path class="g" d="M67.262,186.916a49.486,49.486,0,0,0,.563,18.554c1.11,4.7,1.614,19.445.85,24.616"/>
<path class="d" d="M68.474,229.784H119.01a1.6,1.6,0,0,0,0-3.2H68.474a1.6,1.6,0,0,0,0,3.2Z"/>
<path class="d" d="M121.734,173.344c-.7,7.353-2.132,14.606-3.421,21.872q-.557,3.132-1.076,6.269a60.674,60.674,0,0,0-.928,6.1c-.191,3.191.6,6.606,1.059,9.745.619,4.232,1.423,8.418,2.133,12.633.342,2.026,3.426,1.167,3.086-.851-.589-3.5-1.278-6.973-1.812-10.483A76.311,76.311,0,0,1,119.5,208.09a31.9,31.9,0,0,1,.747-5.3q.516-3.157,1.077-6.308c.656-3.709,1.347-7.412,1.972-11.127.67-3.986,1.251-7.987,1.637-12.011.2-2.049-3-2.036-3.2,0Z"/>
<path class="c" d="M88.557,217.059c1.132.156,8.784.536,13.033-.458,4.944-1.155,23.094-4.573,25.609-5.716l12.986-1.86c.354,1.353.7,2.711,1,4.012.891,3.949-.545,8.091-3.225,9.179-3.337,1.354-5.631,1.547-8.738,2.2-6.517,1.372-36.413,4.631-37.356,4.8"/>
<path class="g" d="M82.841,161.012a38.332,38.332,0,0,0,9.654,1.361,41.791,41.791,0,0,0,10.968-1.679"/>
<path class="d" d="M108.038,155.156c3.438,1.43,6.813,3.009,10.131,4.7q2.367,1.208,4.7,2.473a37.918,37.918,0,0,1,4.907,2.705,1.611,1.611,0,0,0,2.189-.574,1.638,1.638,0,0,0-.574-2.189,37.918,37.918,0,0,0-4.907-2.7c-1.66-.893-3.327-1.774-5.008-2.628q-5.2-2.64-10.593-4.87a1.609,1.609,0,0,0-1.968,1.117,1.642,1.642,0,0,0,1.118,1.969Z"/>
<path class="d" d="M128.433,165.5c2.58,1.491,3.346,4.9,4.011,7.629.728,2.982,1.4,5.978,2.092,8.971q1.8,7.8,3.588,15.61c.4,1.747.8,3.493,1.222,5.234.172.708.348,1.414.534,2.119.092.35.192.7.273,1.052a5.874,5.874,0,0,0,.139.681c.265.73-.648.424.486-.24a1.6,1.6,0,0,0,1.615,2.763c1.73-1.013,1.037-3.356.625-4.911-.378-1.425-.722-2.86-1.058-4.3-.778-3.316-1.511-6.643-2.264-9.965-1.327-5.857-2.677-11.715-4.089-17.552-.9-3.7-2.076-7.845-5.559-9.858a1.6,1.6,0,0,0-1.615,2.763Z"/>
<path class="d" d="M73.322,159.956a15.461,15.461,0,0,1,3.63-5.423,46.876,46.876,0,0,1,3.8-2.779L78.4,150.8a60.789,60.789,0,0,0,4.616,8.851c1.776,3.036,3.642,6.03,5.29,9.14.964,1.82,3.727.205,2.763-1.615-1.608-3.034-3.424-5.957-5.16-8.918-.915-1.561-1.822-3.127-2.681-4.72a35.283,35.283,0,0,1-1.743-3.589c-.329-.862-1.441-1.625-2.35-.956a53.475,53.475,0,0,0-4.45,3.279,17.568,17.568,0,0,0-4.13,6.071,1.652,1.652,0,0,0,.574,2.189,1.611,1.611,0,0,0,2.189-.574Z"/>
<path class="c" d="M95.939,169.927c1.577-2.977,3.2-5.626,5.168-8.7,2.622-4.1,3.534-8.092,5.813-11.169,2.849.228,7.064,5.927,9.8,8.035-2.052.171-6.5.177-7.181.855-1.025,1.239-3.062,3.616-4.119,4.849"/>
<path class="d" d="M106.557,164.923c1.3-1.525,2.551-3.112,3.9-4.593.112-.123.029-.129-.064-.072a1.905,1.905,0,0,1,.583-.145,13.85,13.85,0,0,1,1.7-.195c1.347-.1,2.7-.129,4.046-.234,1.213-.094,2.325-1.791,1.131-2.731-1.882-1.483-3.436-3.357-5.16-5.013-1.626-1.563-3.443-3.215-5.768-3.485a1.6,1.6,0,0,0-1.382.792c-2.165,3-3.215,6.621-5.015,9.826-1.909,3.4-4.136,6.6-5.971,10.046-.967,1.817,1.794,3.436,2.763,1.615,1.835-3.448,4.062-6.647,5.971-10.046,1.8-3.2,2.85-6.83,5.015-9.826l-1.381.793c-.268-.031.2.067.254.088a3.2,3.2,0,0,1,.338.154,7.816,7.816,0,0,1,1.141.736,24.6,24.6,0,0,1,2.378,2.163,55.7,55.7,0,0,0,4.554,4.42l1.132-2.732c-1.469.115-2.943.136-4.411.263a7.905,7.905,0,0,0-3.525.771A12.224,12.224,0,0,0,106.563,160q-1.132,1.332-2.269,2.658c-1.329,1.559.924,3.833,2.263,2.263Z"/>
<path class="d" d="M138.642,209.45c.777,2.974,1.886,6.147.6,9.152-1.138,2.66-4.374,3.08-6.917,3.59-3.327.668-6.653,1.25-10.013,1.718-7.958,1.109-15.946,2.017-23.928,2.94-2.308.267-4.656.435-6.948.826-2.025.347-1.167,3.431.851,3.086.326-.056-.426.053-.189.024l.4-.05,1.411-.167q2.131-.249,4.263-.494,6.193-.715,12.382-1.46c7.929-.961,15.956-1.786,23.753-3.577,3.394-.78,6.46-1.857,7.891-5.267,1.562-3.723.505-7.452-.466-11.171-.52-1.991-3.607-1.147-3.086.85Z"/>
<path class="d" d="M88.557,218.659a48.321,48.321,0,0,0,16.008-1.073c5.681-1.2,11.383-2.3,17.049-3.569a34.936,34.936,0,0,0,6.393-1.75c1.882-.825.255-3.583-1.615-2.763.533-.234-.3.088-.459.139-.375.117-.755.221-1.135.322-1.088.29-2.186.546-3.284.8-2.846.65-5.7,1.245-8.562,1.835-2.744.567-5.49,1.121-8.232,1.693a52.656,52.656,0,0,1-7.056,1.243,47.208,47.208,0,0,1-9.107-.073,1.61,1.61,0,0,0-1.6,1.6,1.638,1.638,0,0,0,1.6,1.6Z"/>
<path class="c" d="M125.481,202.164a113.061,113.061,0,0,1,13.856,1.93,4.708,4.708,0,0,1,1.886.682,4.265,4.265,0,0,1,1.189,1.587,18.989,18.989,0,0,1,.049,16.768.439.439,0,0,1-.743.22,53.109,53.109,0,0,1-15.764-13.687"/>
<path class="d" d="M125.481,203.764c3,.236,6,.58,8.976,1.061,1.489.241,2.979.5,4.455.812a2.933,2.933,0,0,1,1.524.574,5.372,5.372,0,0,1,.9,1.6,17.212,17.212,0,0,1,1.444,7.463,17.021,17.021,0,0,1-.474,3.61,18.361,18.361,0,0,1-.557,1.867c-.113.315-.234.626-.368.933-.126.286-.662.867-.026.4l.807-.219-.228-.008.808.219a38.457,38.457,0,0,1-8.456-5.914,53.847,53.847,0,0,1-7.2-7.625,1.61,1.61,0,0,0-2.263,0,1.638,1.638,0,0,0,0,2.262,53.813,53.813,0,0,0,8.428,8.659,57.1,57.1,0,0,0,4.773,3.514c1.358.891,3.687,2.965,5.287,1.618a6.045,6.045,0,0,0,1.338-2.488,18.439,18.439,0,0,0,.863-2.882,20.693,20.693,0,0,0,.405-6.069,20.482,20.482,0,0,0-1.373-5.919c-.78-1.932-1.693-3.74-3.8-4.435a43.321,43.321,0,0,0-7.273-1.334q-3.983-.577-8-.9c-2.053-.16-2.043,3.04,0,3.2Z"/>
<path class="d" d="M114.4,156.964c-.055-.027-.111-.051-.166-.079a1.2,1.2,0,0,0-.595-.19,1.215,1.215,0,0,0-.638.029,1.786,1.786,0,0,0-.956.735l-.161.382a1.6,1.6,0,0,0,0,.851l.161.382a1.6,1.6,0,0,0,.574.574c.055.028.111.052.166.079a1.185,1.185,0,0,0,.595.19,1.431,1.431,0,0,0,1.182-.315,1.2,1.2,0,0,0,.412-.449l.162-.382a1.613,1.613,0,0,0,0-.85l-.162-.383a1.611,1.611,0,0,0-.574-.574Z"/>
<path class="h" d="M53.6,163.989a69.751,69.751,0,0,0-7.9,10.636l-.324.067a54.437,54.437,0,0,0-9.139,2.616c-1.062.4-3.7,1.514-4.463,2.354-.911,1.007-3.368,8.323-3.757,9.623-8.56,28.322-16.443,50.615-24.546,78.8,3.993,1.292,11.914,3.7,16.259,4.169,5.419-17.475,10.859-38.434,16.976-56.22,4.975,15.161,8.822,31.01,6.98,46.883a108.858,108.858,0,0,1-2.406,12.338C35.47,299.9,31,308.616,25.2,333.262a4.988,4.988,0,0,0-.131,2.67,4.759,4.759,0,0,0,2.257,2.31c16.36,10.072,39.279,9.539,58.457,8.4a50.741,50.741,0,0,0,1.454-5.139l2.373.68c10.8,3.105,32.342,1.054,32.8-3.079-.453-7.493-3.444-23-5.684-31.1-1.384-5.01-9.71-38.226-16.7-60.075a22.561,22.561,0,0,1-1.24-5.025,18.758,18.758,0,0,1,.323-4.419c1.246-7.848.805-16.273,3.365-24.014,5.942,19.265,10.548,36.413,17.537,56.074a48.081,48.081,0,0,0,15.1-4.228c-3.052-12.912-13.306-50.142-15.145-56.84q-3.234-11.806-7.38-23.336a8.5,8.5,0,0,0-1.49-2.9,8.673,8.673,0,0,0-2.616-1.752c-4.177-2.092-7-3.6-11.182-5.71l.223-.546c-.639-4.738-9.758-13.142-10.855-14.661C74.446,158.462,60.589,161.339,53.6,163.989Z"/>
<path class="h" d="M64.193,178.782a10.383,10.383,0,0,0-1.7.864c-.832.53-1.683,1.079-2.587,1.712,5.21,6.182,10.152,12.349,15.459,18.414.346-.97.556-1.562.556-1.562.531-1.5,4.264-10.891,7.236-18.31-.34-.151-.689-.3-1.03-.444-1.324-.547-2.647-1.062-3.9-1.514-1.569-.563-3.559-.911-8.014-.444A23.143,23.143,0,0,0,64.193,178.782Z"/>
<path class="d" d="M35.443,217.333c4.327,13.232,7.729,27.032,7.012,41.057-.359,7.026-2.06,13.851-3.742,20.655q-2.129,8.61-4.679,17.1c-3.092,10.359-6.392,20.641-9.026,31.132q-.576,2.292-1.122,4.59c-.393,1.651-.9,3.386-.143,5.012,1.1,2.369,4.243,3.677,6.452,4.775a63.147,63.147,0,0,0,16.3,5.32c12.931,2.469,26.212,2.037,39.285,1.266,2.047-.12,2.061-3.321,0-3.2-11.39.672-22.942,1.13-34.279-.465a70.244,70.244,0,0,1-16.216-4.123,44.191,44.191,0,0,1-7.31-3.695,3.363,3.363,0,0,1-1.289-1.123,3.723,3.723,0,0,1,.168-2.436q.6-2.539,1.236-5.07c2.578-10.259,5.784-20.321,8.822-30.448,1.613-5.378,3.123-10.786,4.495-16.231,1.654-6.571,3.378-13.207,4.02-19.968,1.454-15.3-2.178-30.558-6.9-45-.638-1.948-3.729-1.114-3.086.851Z"/>
<path class="d" d="M89.184,343.729a52.806,52.806,0,0,0,15.43,1.537c4.817-.111,9.915-.474,14.521-1.988a9.041,9.041,0,0,0,4.025-2.224c1.325-1.495.733-3.632.525-5.434-.7-6.016-1.788-11.993-3.028-17.918-1.639-7.835-3.816-15.561-5.847-23.3-3.067-11.691-6.206-23.366-9.607-34.965q-1.274-4.344-2.61-8.669c-1.077-3.467-2.559-6.866-2.127-10.564.445-3.808.984-7.594,1.355-11.414a92.486,92.486,0,0,1,1.588-11.278,42.009,42.009,0,0,1,1.531-5.251c.709-1.937-2.383-2.773-3.085-.851-2.555,6.989-2.9,14.5-3.675,21.832-.4,3.787-1.491,7.693-.739,11.489.619,3.128,1.863,6.2,2.793,9.249,3.537,11.6,6.732,23.313,9.845,35.038,1.938,7.294,3.914,14.587,5.753,21.907,1.42,5.65,2.567,11.376,3.54,17.119.459,2.71.881,5.43,1.179,8.163q.09.827.162,1.654c.028.328.115.99.114,1.008s.05-.057,0,.01c-.309.37-.223.245-.505.414a16.56,16.56,0,0,1-5.147,1.7,55.7,55.7,0,0,1-8.122.976c-5.636.309-11.545.212-17.013-1.329a1.6,1.6,0,0,0-.851,3.086Z"/>
<path class="d" d="M96.484,177.165c4.067,2.055,8.294,3.981,12.236,6.266,2.023,1.173,2.475,3.559,3.2,5.629q1.27,3.624,2.45,7.279c1.955,6.054,3.665,12.175,5.347,18.308q4.776,17.4,9.427,34.839c1.52,5.74,3.049,11.483,4.417,17.262l1.118-1.968a63.55,63.55,0,0,1-7.373,2.731,59.208,59.208,0,0,1-7.722,1.5l1.968,1.118c-6.5-18.307-11.665-37.029-17.386-55.583-.6-1.962-3.695-1.125-3.086.851,5.721,18.554,10.89,37.275,17.386,55.582a1.663,1.663,0,0,0,1.968,1.118,59.693,59.693,0,0,0,7.723-1.5,63.358,63.358,0,0,0,7.372-2.732,1.651,1.651,0,0,0,1.118-1.968c-2.752-11.62-5.963-23.14-9.087-34.665-3.089-11.4-6.022-22.882-9.592-34.143q-1.305-4.119-2.725-8.2c-.831-2.389-1.469-5.447-3.451-7.185-1.868-1.638-4.452-2.565-6.646-3.692-2.348-1.206-4.691-2.42-7.047-3.61-1.834-.927-3.456,1.833-1.615,2.763Z"/>
<path class="d" d="M36.273,212.338c-5.21,15.414-9.609,31.088-14.227,46.686q-1.9,6.411-3.866,12.8l1.543-1.174c-5.368-.618-10.711-2.459-15.834-4.112l1.118,1.968c4.332-15.054,9.089-29.978,13.882-44.89,2.386-7.426,4.77-14.853,7.1-22.3,1.807-5.788,3.407-11.66,5.551-17.337a23.69,23.69,0,0,1,1.236-2.919,3.4,3.4,0,0,1,.254-.432c-.257.341.168-.088.3-.178a12.325,12.325,0,0,1,1.963-1.033A45.731,45.731,0,0,1,45.8,176.235c2.021-.378,1.165-3.463-.851-3.086a50.8,50.8,0,0,0-9.914,2.923c-2.1.863-4.254,1.73-5.269,3.876-2.292,4.845-3.659,10.156-5.23,15.257-4.707,15.283-9.721,30.468-14.525,45.72q-4.194,13.32-8.085,26.734a1.63,1.63,0,0,0,1.118,1.968c5.42,1.749,11.005,3.572,16.684,4.226a1.61,1.61,0,0,0,1.543-1.175c4.806-15.513,9.13-31.171,13.952-46.68q2-6.428,4.14-12.809c.661-1.955-2.428-2.794-3.085-.851Z"/>
<path class="d" d="M84.271,200.406l9.391-8.173a1.625,1.625,0,0,0,.251-1.939c-1.362-2.594-2.347-5.451-3.93-7.92v1.615c-.359.576.034.012.216-.16.3-.282.607-.553.915-.824.881-.777,1.773-1.541,2.664-2.307a56.6,56.6,0,0,0,4.7-4.131c1.489-1.6.019-3.724-.936-5.212a72.073,72.073,0,0,0-6.639-8.579c-1.156-1.314-2.609-3.581-4.428-3.844a41.139,41.139,0,0,0-6.985-.156c-2.055.056-2.063,3.256,0,3.2,1.928-.053,3.87-.1,5.8.032a3.443,3.443,0,0,1,.766.073c-.535-.167.04.2.25.413q1,1.033,1.95,2.107a72.6,72.6,0,0,1,6.057,7.656A18.539,18.539,0,0,1,95.922,175c-.124-.277.079.185.05.21-.107.095.173-.691.192-.744.185-.524-.041-.065-.312.19-1.458,1.371-3.014,2.645-4.532,3.949-.874.752-1.75,1.5-2.613,2.266a7.545,7.545,0,0,0-1.487,1.5,1.584,1.584,0,0,0,0,1.615c1.583,2.469,2.568,5.327,3.929,7.92l.251-1.939-9.392,8.173c-1.556,1.355.715,3.61,2.263,2.263Z"/>
<path class="d" d="M59.156,160.515a61.036,61.036,0,0,0-5.835,1.873c-1.334.527-2.274,2.139-3.133,3.244q-3.032,3.9-5.73,8.039c-1.129,1.724-2.6,3.62-3.23,5.615-.575,1.823,1.257,2.826,2.54,3.686,1.995,1.336,4.067,2.556,6.125,3.789a13.319,13.319,0,0,0,1.91,1.159c.028.011.06.054.089.059.47.07-2.851-.888-.523-.678-.129-.012.126-.383-.1.127-.245.553-.412,1.147-.661,1.7-.419.937-1.117,2.028-.983,3.095a3.234,3.234,0,0,0,1.082,1.833,27.944,27.944,0,0,0,5.162,3.63c5.269,3.2,10.769,6.046,16.29,8.784,1.839.912,3.462-1.847,1.615-2.763-4.582-2.273-9.123-4.643-13.563-7.181a68.292,68.292,0,0,1-6.051-3.764,15.08,15.08,0,0,1-1.448-1.235c-.12-.11,0,.186-.018-.03a1.9,1.9,0,0,0,.1.456c.1.265-.081.247.075-.059.108-.211.187-.447.283-.663.791-1.772,2.45-4.575.329-6.038-1.421-.98-2.977-1.8-4.451-2.692-.972-.591-1.94-1.187-2.9-1.8-.421-.273-.841-.548-1.252-.835-.148-.1-.3-.206-.441-.313-.3-.219.012-.016-.245-.194-.027-.019-.242-.246-.254-.241.245-.1.289,1.087.309,1.212-.011-.069.168-.355.043-.149-.115.191.1-.207.14-.279.453-.876.959-1.723,1.477-2.561,1.709-2.763,3.556-5.446,5.49-8.055.505-.68,1.016-1.355,1.543-2.018a13.771,13.771,0,0,0,1.424-1.732c.039-.073.434-.445-.046-.12a3.177,3.177,0,0,1,.66-.243c.5-.181,1.014-.352,1.524-.518,1.159-.378,2.329-.724,3.5-1.055a1.6,1.6,0,0,0-.851-3.085Z"/>
<path class="d" d="M69.858,218.375a4.685,4.685,0,0,0,2.528,3.913,4.3,4.3,0,0,0,4.79-.582,4.153,4.153,0,0,0,.781-4.833A4.828,4.828,0,0,0,74,214.433a4.045,4.045,0,0,0-4.14,3.942,1.6,1.6,0,0,0,3.2,0,2.565,2.565,0,0,1,.011-.291l-.057.425a2.3,2.3,0,0,1,.152-.559l-.161.382a3.078,3.078,0,0,1,.213-.386c.153-.241-.263.3-.067.087.052-.055.1-.11.156-.163s.112-.131.17-.15l-.2.159c.041-.03.083-.058.126-.085a2.82,2.82,0,0,1,.405-.209l-.382.161a2.713,2.713,0,0,1,.588-.156l-.425.057a2.57,2.57,0,0,1,.632.008l-.425-.057a3.413,3.413,0,0,1,.767.219l-.382-.162a3.758,3.758,0,0,1,.5.257c.08.049.154.108.233.158-.418-.261-.187-.148-.078-.049.061.055.12.112.176.171.111.117.23.37-.026-.056a4.49,4.49,0,0,1,.275.476l-.161-.382a2.4,2.4,0,0,1,.152.53l-.058-.425a3.175,3.175,0,0,1,0,.767l.057-.426a2.882,2.882,0,0,1-.179.682l.161-.383a3.668,3.668,0,0,1-.2.372c-.158.273.259-.288.082-.1-.043.045-.082.091-.126.134s-.093.08-.136.122c.345-.34.251-.187.128-.107a2.442,2.442,0,0,1-.375.2l.383-.162a2.778,2.778,0,0,1-.656.175l.425-.057a3.053,3.053,0,0,1-.74,0l.425.057a2.931,2.931,0,0,1-.716-.2l.382.161a3.921,3.921,0,0,1-.507-.282c-.222-.142.337.288.042.028-.063-.056-.123-.113-.181-.173s-.111-.123-.166-.186c-.175-.2.255.367.041.042a3.437,3.437,0,0,1-.264-.484l.161.382a3,3,0,0,1-.211-.759l.057.425c-.007-.063-.012-.125-.015-.188a1.6,1.6,0,0,0-3.2,0Z"/>
<path class="d" d="M42.7,249.561a202.16,202.16,0,0,0,24.422,1.01c8.315-.055,16.639-.363,24.928-1.035,3.456-.28,6.913-.62,10.339-1.159,2.029-.32,1.167-3.4-.851-3.086A183.069,183.069,0,0,1,81.36,247c-8.612.392-17.247.518-25.864.235-4.274-.14-8.549-.383-12.8-.872-2.042-.234-2.025,2.968,0,3.2Z"/>
<path class="d" d="M42.887,259.76a218.461,218.461,0,0,0,23.655.95c8.553-.047,17.117-.393,25.637-1.167,4.121-.375,8.238-.853,12.32-1.537,2.026-.34,1.167-3.424-.851-3.086A195.271,195.271,0,0,1,81,257.114c-8.531.422-17.087.534-25.624.25-4.17-.138-8.339-.375-12.49-.8-2.047-.212-2.032,2.99,0,3.2Z"/>
<path class="h" d="M79.045,245.39c-1.189-.132-8.014.088-9.379.265-.221,2.554-.132,13.563.029,18.2,2.6.5,8.205.338,9.967-.411C79.838,261.64,79.4,248.781,79.045,245.39Z"/>
<path class="d" d="M79.045,243.79a36.76,36.76,0,0,0-4.623.017c-1.58.047-3.185.057-4.756.248a1.658,1.658,0,0,0-1.6,1.6c-.226,2.756-.14,5.557-.129,8.319.013,3.294.046,6.59.158,9.882A1.624,1.624,0,0,0,69.27,265.4a26.819,26.819,0,0,0,5.725.319,15.579,15.579,0,0,0,5.092-.73,1.7,1.7,0,0,0,1.175-1.543,69.4,69.4,0,0,0-.11-8.433c-.11-3.2-.183-6.431-.507-9.622a1.646,1.646,0,0,0-1.6-1.6,1.612,1.612,0,0,0-1.6,1.6c.324,3.191.4,6.419.507,9.622a69.4,69.4,0,0,1,.11,8.433l1.175-1.542a12.864,12.864,0,0,1-4.242.615,24.339,24.339,0,0,1-4.875-.2l1.175,1.542c-.112-3.292-.145-6.588-.158-9.882-.011-2.762-.1-5.563.129-8.319l-1.6,1.6c1.571-.191,3.176-.2,4.756-.248a36.76,36.76,0,0,1,4.623-.017,1.61,1.61,0,0,0,1.6-1.6A1.635,1.635,0,0,0,79.045,243.79Z"/>
<path class="h" d="M28.3,254.051C25.88,253.5,9.57,249.3,5.688,248.559a130.612,130.612,0,0,0-4.1,13.536c4.936,2.125,19.449,5.395,23.07,5.813A121.62,121.62,0,0,0,28.3,254.051Z"/>
<path class="h" d="M112.141,252c2.415-.556,17.326-4.11,21.209-4.846a131.1,131.1,0,0,1,4.1,13.536c-4.936,2.124-18.05,4.749-21.671,5.167A121.634,121.634,0,0,1,112.141,252Z"/>
<path class="d" d="M28.721,252.508c-7.547-1.751-15-4.029-22.608-5.491a1.65,1.65,0,0,0-1.968,1.117,123.655,123.655,0,0,0-4.1,13.536,1.62,1.62,0,0,0,.736,1.806,79.336,79.336,0,0,0,12.409,3.708,99.922,99.922,0,0,0,11.468,2.324,1.619,1.619,0,0,0,1.543-1.175,83.805,83.805,0,0,0,3.64-13.857c.359-2.013-2.724-2.878-3.085-.85a83.922,83.922,0,0,1-3.641,13.856l1.543-1.174c-.022,0-.154-.019-.523-.077-.345-.054-.689-.114-1.033-.176-.864-.155-1.727-.325-2.587-.5q-3.251-.669-6.474-1.454a77.642,77.642,0,0,1-11.645-3.386l.735,1.807a123.852,123.852,0,0,1,4.1-13.535L5.262,250.1c7.612,1.463,15.061,3.741,22.608,5.492C29.874,256.059,30.729,252.974,28.721,252.508Z"/>
<path class="d" d="M112.566,253.539c7.06-1.63,14.092-3.483,21.209-4.846l-1.968-1.117a123.857,123.857,0,0,1,4.1,13.535l.735-1.807a64.264,64.264,0,0,1-10.946,3.063q-2.949.66-5.92,1.22c-.821.154-1.642.3-2.466.437q-.454.075-.91.144c-.479.072-.268.043-.621.085l1.542,1.174a83.919,83.919,0,0,1-3.64-13.856c-.361-2.024-3.445-1.167-3.086.85a83.907,83.907,0,0,0,3.641,13.857,1.631,1.631,0,0,0,1.543,1.175,107.87,107.87,0,0,0,10.768-2,68.152,68.152,0,0,0,11.71-3.385A1.61,1.61,0,0,0,139,260.26a123.852,123.852,0,0,0-4.1-13.535,1.652,1.652,0,0,0-1.968-1.118c-7.118,1.363-14.149,3.216-21.209,4.846C109.71,250.916,110.559,254,112.566,253.539Z"/>
<path class="b" d="M85.969,172.877c-.689,1.7-1.7,4.217-2.814,7.015v.008c-.34-.151-.689-.293-1.03-.444-1.324-.547-2.647-1.062-3.9-1.514-1.569-.563-3.559-.911-8.014-.444-4.439.492-6.3,1.261-7.72,2.148-.523.333-1.054.674-1.6,1.039a.314.314,0,0,0-.064.039,17.8,17.8,0,0,1-2.021-1.26s-1.363-1.45-2.584-3.067c-.293-.381-.571-.769-.824-1.15.578-.444.959-.729.959-.729a6.621,6.621,0,0,0,1.72-1.554c.032-.055.071-.111.095-.158a9.075,9.075,0,0,0,.531-1.9c.809-3.083,5.644-4.5,10.289-4.771,4.6-.73,9.623-.381,11.073,2.457a8.742,8.742,0,0,0,.92,1.744,5.933,5.933,0,0,0,2.148,1.284c.681.317,1.387.634,2.116.943C85.486,172.671,85.732,172.774,85.969,172.877Z"/>
<path class="c" d="M66.352,166.164c-.212-1.958-1.148-5.334.156-7.723.817-1.956,4.518-2.47,4.224-5.334-.244-2.375-1.861-2.71-3.658-2.348-2.994.6-1.721,3.265-3.236,4.432a2.232,2.232,0,0,1-3.169-.765,5.693,5.693,0,0,1-.506-3.91c.935-3.109,4.125-4.956,7.353-5.292a7.841,7.841,0,0,1,7.979,4.014,7.54,7.54,0,0,1,0,7.544c-1.891,3.494-3.472,2.662-4.129,3.991-.675,1.011-.27,3.353-.107,4.86Z"/>
<path class="d" d="M67.952,166.164c-.261-2.2-1.218-5.124.063-7.165a6.935,6.935,0,0,1,1.741-1.439,6.748,6.748,0,0,0,2.091-2.143c1.123-2.072.32-5.136-1.93-6.055-2.017-.825-4.968-.163-6.089,1.8A20.8,20.8,0,0,0,63,153.709a.364.364,0,0,1-.291.266.739.739,0,0,1-.7-.434c-1.379-2.2.54-4.663,2.4-5.711a7.838,7.838,0,0,1,6.972-.438,6.37,6.37,0,0,1,3.5,6.29,7,7,0,0,1-1.731,3.737,8.243,8.243,0,0,1-1.959,1.3c-2.357,1.493-1.793,4.567-1.528,6.917a1.649,1.649,0,0,0,1.6,1.6,1.61,1.61,0,0,0,1.6-1.6,11.855,11.855,0,0,1-.2-3.829c.015-.063.178-.431.12-.3l-.027.012c.319-.157.642-.332.954-.5a9.362,9.362,0,0,0,4.324-6.878,9.7,9.7,0,0,0-3.121-8.224,10.22,10.22,0,0,0-8.258-2.172,10.363,10.363,0,0,0-7.07,4.284c-1.552,2.326-1.759,6.355.617,8.266a3.716,3.716,0,0,0,6-2.083c.189-.68.162-1.444.741-1.75.543-.286,1.711-.439,2.047.142.512.886-.087,1.612-.747,2.13a13.215,13.215,0,0,0-2.708,2.259c-2.011,2.692-1.138,6.14-.778,9.179a1.65,1.65,0,0,0,1.6,1.6,1.609,1.609,0,0,0,1.6-1.6Z"/>
<path class="d" d="M55.824,176.811a24.816,24.816,0,0,0,3.1-2.4c1.045-1.074.859-2.5,1.588-3.686,1.5-2.441,5.772-2.741,8.279-2.974,2.788-.258,6.757-1.089,9.2.811,1.116.869,1.239,2.465,2.39,3.381a21.687,21.687,0,0,0,5.165,2.468,1.611,1.611,0,0,0,1.968-1.117,1.639,1.639,0,0,0-1.117-1.969c-1.554-.645-3.848-1.225-4.62-2.816a6.245,6.245,0,0,0-2.929-3.151c-3.292-1.629-6.952-1.07-10.453-.778-3.273.273-7.082.906-9.579,3.241a5.909,5.909,0,0,0-1.258,1.647c-.379.757-.391,1.591-.713,2.352-.367.868-1.814,1.616-2.634,2.227-1.634,1.216-.04,4,1.615,2.763Z"/>
<path class="d" d="M84.755,179.9v-.008a1.563,1.563,0,0,0-.792-1.381,41.306,41.306,0,0,0-6.463-2.453,19.213,19.213,0,0,0-5.683-.3,31.544,31.544,0,0,0-7.023,1.124,18.057,18.057,0,0,0-4.712,2.422c-1.709,1.132-.108,3.905,1.615,2.763A15.434,15.434,0,0,1,65.529,180a27.274,27.274,0,0,1,6.288-1.045,16.58,16.58,0,0,1,4.74.166,35.081,35.081,0,0,1,5.791,2.151l-.793-1.382v.008a1.6,1.6,0,0,0,3.2,0Z"/>
<path class="d" d="M85.947,258.6l1.293,27.865c.541,11.659,1.451,23.406.918,35.075-.377,8.249-1.2,16.83-3.921,24.683-.676,1.95,2.414,2.788,3.086.851,2.355-6.791,3.244-14.154,3.779-21.285a182.66,182.66,0,0,0,.135-22.148l-1.567-33.78L89.147,258.6c-.095-2.05-3.3-2.062-3.2,0Z"/>
<path class="d" d="M52.942,175.737c6.386,7.2,12.366,14.745,18.612,22.066,3.1,3.63,6.329,7.121,9.559,10.632a10.7,10.7,0,0,1,2.83,6.871c.4,8.07.748,16.142,1.122,24.213l.415,8.955c.095,2.05,3.3,2.062,3.2,0l-1.038-22.4-.487-10.5a14.988,14.988,0,0,0-1.543-6.283,24.306,24.306,0,0,0-4.227-5.224q-2.439-2.616-4.791-5.311c-7.275-8.3-14.064-17.019-21.389-25.279-1.369-1.544-3.626.726-2.263,2.262Z"/>
<path class="d" d="M77.461,198.636c1.456-4.06,3.141-8.047,4.737-12.052,1.1-2.754,2.207-5.534,3.273-8.2q.811-2.032,1.629-4.062c.179-.445.456-1.128.575-1.43.13-.33.267-.659.4-.988.022-.053.276-.662.147-.36a1.656,1.656,0,0,0-.574-2.189,1.61,1.61,0,0,0-2.189.574q-.3.705-.588,1.416c-.149.366-.29.736-.445,1.1l-.058.425c-.035-.191-.073-.19-.112,0-.629,1.3-1.09,2.708-1.625,4.046-1.135,2.837-2.2,5.5-3.368,8.435-1.647,4.132-3.387,8.246-4.888,12.434-.7,1.942,2.394,2.778,3.085.851Z"/>
<path class="c" d="M22.944,171.686q.174-.34.378-.666c1.312-2.1,6.768-6.44,17.512-.093a10.62,10.62,0,0,1,2.148,3.253c.885,2.065.648,6.079-3.579,6.891a3.975,3.975,0,0,1-.518,2.768,3.747,3.747,0,0,1-4.312.659l-1.521-.242a2.723,2.723,0,0,1-.835,3.057c-1.5,1.181-3.929-.131-4.845-1.375L25.1,192.659a26.453,26.453,0,0,1-3.989-5.643,13.407,13.407,0,0,1-1.4-4.826,7.279,7.279,0,0,1,1.262-4.788,6.888,6.888,0,0,0,.663-1.408A15.128,15.128,0,0,1,22.944,171.686Z"/>
<path class="d" d="M38.37,170.938a9.17,9.17,0,0,1,2.278,2.28,11.851,11.851,0,0,1,.886,1.617c-.072-.158-.052-.144,0,.009.029.084.058.167.084.252.06.2.1.4.144.6.021.1.02.369,0-.019.005.1.019.2.025.3a5.647,5.647,0,0,1,0,.676c0,.049-.031.406-.007.162s-.02.113-.029.163a6.127,6.127,0,0,1-.183.679c-.051.157-.1.234-.007.038-.058.118-.115.235-.18.349-.044.077-.1.149-.139.226-.187.336.193-.181-.073.106a5.88,5.88,0,0,1-.5.489c.241-.2-.126.078-.153.1-.131.082-.268.156-.405.227a1.6,1.6,0,1,0,1.615,2.763,6.416,6.416,0,0,0,3.152-6.875c-.437-2.825-2.6-5.35-4.9-6.9a1.6,1.6,0,1,0-1.615,2.763Z"/>
<path class="d" d="M33.734,176.35c.97,1.034,1.906,2.1,2.783,3.213.068.088.063.08-.018-.024l.182.238c.089.119.178.237.266.357.171.234.341.47.506.708.095.136.191.272.282.411.037.056.192.4.126.192-.094-.3.067.547.008-.029a3,3,0,0,1,.016.367c0,.068,0,.5.015.062a1.913,1.913,0,0,1-.067.35c-.053.227-.144.439-.2.662-.033.12.2-.34.01-.042-.019.029-.09.126-.087.153.223-.272.276-.342.158-.213-.044.049-.09.095-.138.139-.235.248.194-.086-.08.067-.112.062-.222.127-.334.189.325-.18-.057.016-.156.045a4.119,4.119,0,0,1-.44.1c.278-.05.07-.012-.093-.007-.131,0-.26,0-.392-.007-.411-.01.308.082-.093-.008-.127-.028-.255-.054-.38-.09-.078-.023-.586-.231-.222-.066a1.639,1.639,0,0,0-2.189.574,1.619,1.619,0,0,0,.574,2.189,5.74,5.74,0,0,0,5.006.033,4.167,4.167,0,0,0,2.214-3.217,4.473,4.473,0,0,0-.278-2.677,10.9,10.9,0,0,0-1.264-1.857A50.146,50.146,0,0,0,36,174.087a1.615,1.615,0,0,0-2.263,0,1.635,1.635,0,0,0,0,2.263Z"/>
<path class="d" d="M28.785,181.187a9.68,9.68,0,0,1,1.344,1.326c.081.095.158.192.237.288q.165.21-.021-.028c.05.066.1.133.148.2q.285.393.542.808c.14.226.276.457.4.693.034.065.066.13.1.2q-.135-.327-.043-.083c.037.135.075.271.113.406.032.175.03.136-.007-.119.008.068.013.136.016.2,0,.1,0,.2,0,.305q-.023.264.025-.126c-.011.066-.024.131-.039.2s-.033.129-.053.192q-.087.242.054-.1a1.7,1.7,0,0,0-.193.352c-.1.138-.075.112.066-.079-.045.053-.092.1-.141.154l-.077.073q-.2.171.08-.05c.01.009-.324.178-.335.2q.356-.144.116-.06c-.06.019-.121.035-.182.049-.172.032-.123.027.145-.013-.064.006-.127.01-.191.011-.1,0-.193-.006-.289-.007q-.261-.025.133.022c-.065-.011-.13-.024-.2-.038-.131-.03-.26-.066-.388-.108-.064-.022-.128-.044-.192-.069q-.24-.094.1.043c0-.02-.552-.294-.628-.342s-.261-.228-.33-.227q.288.226.093.068c-.049-.04-.1-.082-.145-.125-.091-.082-.179-.167-.263-.257s-.342-.424-.024,0a1.753,1.753,0,0,0-.956-.735,1.634,1.634,0,0,0-1.233.161,1.617,1.617,0,0,0-.574,2.189c1.475,1.947,4.188,3.328,6.575,2.223a4.079,4.079,0,0,0,2.2-3.173,5.464,5.464,0,0,0-.962-3.63,12.663,12.663,0,0,0-2.751-3.242,1.736,1.736,0,0,0-1.131-.468,1.6,1.6,0,0,0-1.131,2.731Z"/>
<path class="d" d="M33.266,166.252a12.443,12.443,0,0,0-8.843,1.5C22,169.371,20.849,171.9,20.26,174.7c-.292,1.385-1.075,2.316-1.577,3.626a10.1,10.1,0,0,0-.349,5.538c.736,3.823,3.126,7.062,5.636,9.925,1.36,1.552,3.616-.719,2.262-2.263-2.076-2.368-4-4.978-4.725-8.1a6.792,6.792,0,0,1,.256-4.219,23.37,23.37,0,0,0,1.417-2.787c.651-2.226.84-4.4,2.662-5.763a8.826,8.826,0,0,1,6.573-1.319,1.656,1.656,0,0,0,1.969-1.117,1.61,1.61,0,0,0-1.118-1.968Z"/>
</g>
</svg>